# Generated by scripts/generate_transport_prop_meshes.py
# Tapered, slightly curved apple stem visual mesh
# Units: metres; project-owned procedural asset (MIT)
o apple_stem_visual
v 0.001000000 0.003208500 0.027000000
v -0.000757474 0.002420174 0.027055793
v -0.002049928 0.000991481 0.027096823
v -0.001843653 -0.000924424 0.027090275
v -0.000884959 -0.002595731 0.027059840
v 0.001000000 -0.002991500 0.027000000
v 0.002884959 -0.002595731 0.026940160
v 0.003843653 -0.000924424 0.026909725
v 0.004049928 0.000991481 0.026903177
v 0.002757474 0.002420174 0.026944207
v 0.001111111 0.003036000 0.030500000
v -0.000549369 0.002290057 0.030605427
v -0.001770494 0.000938176 0.030682959
v -0.001575603 -0.000874724 0.030670585
v -0.000669819 -0.002456176 0.030613075
v 0.001111111 -0.002830667 0.030500000
v 0.002892041 -0.002456176 0.030386925
v 0.003797825 -0.000874724 0.030329415
v 0.003992716 0.000938176 0.030317041
v 0.002771592 0.002290057 0.030394573
v 0.001444444 0.002863500 0.034000000
v -0.000112343 0.002159941 0.034197687
v -0.001257211 0.000884870 0.034343067
v -0.001074490 -0.000825024 0.034319865
v -0.000225270 -0.002316620 0.034212027
v 0.001444444 -0.002669833 0.034000000
v 0.003114159 -0.002316620 0.033787973
v 0.003963379 -0.000825024 0.033680135
v 0.004146100 0.000884870 0.033656933
v 0.003001232 0.002159941 0.033802313
v 0.002000000 0.002691000 0.037500000
v 0.000551293 0.002029824 0.037775944
v -0.000514092 0.000831565 0.037978875
v -0.000344057 -0.000775324 0.037946487
v 0.000446206 -0.002177065 0.037795961
v 0.002000000 -0.002509000 0.037500000
v 0.003553794 -0.002177065 0.037204039
v 0.004344057 -0.000775324 0.037053513
v 0.004514092 0.000831565 0.037021125
v 0.003448707 0.002029824 0.037224056
v 0.002777778 0.002518500 0.041000000
v 0.001440028 0.001899707 0.041339746
v 0.000456242 0.000778259 0.041589597
v 0.000613254 -0.000725623 0.041549720
v 0.001342989 -0.002037509 0.041364391
v 0.002777778 -0.002348167 0.041000000
v 0.004212566 -0.002037509 0.040635609
v 0.004942302 -0.000725623 0.040450280
v 0.005099314 0.000778259 0.040410403
v 0.004115527 0.001899707 0.040660254
v 0.003777778 0.002346000 0.044500000
v 0.002552363 0.001769590 0.044889021
v 0.001651187 0.000724954 0.045175108
v 0.001795015 -0.000675923 0.045129449
v 0.002463473 -0.001897954 0.044917240
v 0.003777778 -0.002187333 0.044500000
v 0.005092083 -0.001897954 0.044082760
v 0.005760541 -0.000675923 0.043870551
v 0.005904368 0.000724954 0.043824892
v 0.005003193 0.001769590 0.044110979
v 0.005000000 0.002173500 0.048000000
v 0.003875448 0.001639473 0.048392701
v 0.003048448 0.000671648 0.048681494
v 0.003180437 -0.000626223 0.048635403
v 0.003793874 -0.001758398 0.048421187
v 0.005000000 -0.002026500 0.048000000
v 0.006206126 -0.001758398 0.047578813
v 0.006819563 -0.000626223 0.047364597
v 0.006951552 0.000671648 0.047318506
v 0.006124552 0.001639473 0.047607299
v 0.001000000 0.000000000 0.027000000
v 0.005000000 0.000000000 0.048000000
f 1 2 12
f 1 12 11
f 2 3 13
f 2 13 12
f 3 4 14
f 3 14 13
f 4 5 15
f 4 15 14
f 5 6 16
f 5 16 15
f 6 7 17
f 6 17 16
f 7 8 18
f 7 18 17
f 8 9 19
f 8 19 18
f 9 10 20
f 9 20 19
f 10 1 11
f 10 11 20
f 11 12 22
f 11 22 21
f 12 13 23
f 12 23 22
f 13 14 24
f 13 24 23
f 14 15 25
f 14 25 24
f 15 16 26
f 15 26 25
f 16 17 27
f 16 27 26
f 17 18 28
f 17 28 27
f 18 19 29
f 18 29 28
f 19 20 30
f 19 30 29
f 20 11 21
f 20 21 30
f 21 22 32
f 21 32 31
f 22 23 33
f 22 33 32
f 23 24 34
f 23 34 33
f 24 25 35
f 24 35 34
f 25 26 36
f 25 36 35
f 26 27 37
f 26 37 36
f 27 28 38
f 27 38 37
f 28 29 39
f 28 39 38
f 29 30 40
f 29 40 39
f 30 21 31
f 30 31 40
f 31 32 42
f 31 42 41
f 32 33 43
f 32 43 42
f 33 34 44
f 33 44 43
f 34 35 45
f 34 45 44
f 35 36 46
f 35 46 45
f 36 37 47
f 36 47 46
f 37 38 48
f 37 48 47
f 38 39 49
f 38 49 48
f 39 40 50
f 39 50 49
f 40 31 41
f 40 41 50
f 41 42 52
f 41 52 51
f 42 43 53
f 42 53 52
f 43 44 54
f 43 54 53
f 44 45 55
f 44 55 54
f 45 46 56
f 45 56 55
f 46 47 57
f 46 57 56
f 47 48 58
f 47 58 57
f 48 49 59
f 48 59 58
f 49 50 60
f 49 60 59
f 50 41 51
f 50 51 60
f 51 52 62
f 51 62 61
f 52 53 63
f 52 63 62
f 53 54 64
f 53 64 63
f 54 55 65
f 54 65 64
f 55 56 66
f 55 66 65
f 56 57 67
f 56 67 66
f 57 58 68
f 57 68 67
f 58 59 69
f 58 69 68
f 59 60 70
f 59 70 69
f 60 51 61
f 60 61 70
f 71 2 1
f 72 61 62
f 71 3 2
f 72 62 63
f 71 4 3
f 72 63 64
f 71 5 4
f 72 64 65
f 71 6 5
f 72 65 66
f 71 7 6
f 72 66 67
f 71 8 7
f 72 67 68
f 71 9 8
f 72 68 69
f 71 10 9
f 72 69 70
f 71 1 10
f 72 70 61
