# Generated by scripts/generate_transport_prop_meshes.py
# Thin apple leaf visual mesh
# Units: metres; project-owned procedural asset (MIT)
o apple_leaf_visual
v 0.010838163 0.002927945 0.038984183
v 0.015667451 0.005078083 0.039858376
v 0.015167148 0.005567292 0.039811923
v 0.014244299 0.005798680 0.039677112
v 0.012989240 0.005749598 0.039467139
v 0.011524824 0.005424849 0.039202558
v 0.009994399 0.004856223 0.038909267
v 0.008547774 0.004099381 0.038615976
v 0.007326553 0.003228407 0.038351394
v 0.006450279 0.002328559 0.038141421
v 0.006004728 0.001487920 0.038006610
v 0.006033513 0.000788777 0.037960158
v 0.006533816 0.000299568 0.038006610
v 0.007456665 0.000068180 0.038141421
v 0.008711724 0.000117263 0.038351394
v 0.010176139 0.000442011 0.038615976
v 0.011706564 0.001010637 0.038909267
v 0.013153190 0.001767480 0.039202558
v 0.014374411 0.002638453 0.039467139
v 0.015250684 0.003538301 0.039677112
v 0.015696236 0.004378941 0.039811923
v 0.019786162 0.006911851 0.040449648
v 0.018861722 0.007815792 0.040363814
v 0.017156520 0.008243341 0.040114716
v 0.014837473 0.008152649 0.039726737
v 0.012131586 0.007552592 0.039237854
v 0.009303729 0.006501908 0.038695923
v 0.006630714 0.005103445 0.038153992
v 0.004374192 0.003494096 0.037665109
v 0.002755050 0.001831393 0.037277129
v 0.001931778 0.000278095 0.037028031
v 0.001984965 -0.001013752 0.036942197
v 0.002909405 -0.001917692 0.037028031
v 0.004614607 -0.002345242 0.037277129
v 0.006933654 -0.002254549 0.037665109
v 0.009639541 -0.001654492 0.038153992
v 0.012467398 -0.000603808 0.038695923
v 0.015140414 0.000794654 0.039237854
v 0.017396935 0.002404004 0.039726737
v 0.019016078 0.004066706 0.040114716
v 0.019839349 0.005620005 0.040363814
v 0.022567260 0.008150076 0.040667983
v 0.021359421 0.009331131 0.040555836
v 0.019131467 0.009889751 0.040230374
v 0.016101486 0.009771256 0.039723454
v 0.012566074 0.008987243 0.039084697
v 0.008871301 0.007614459 0.038376631
v 0.005378838 0.005787280 0.037668564
v 0.002430551 0.003684563 0.037029807
v 0.000315039 0.001512137 0.036522888
v -0.000760617 -0.000517345 0.036197425
v -0.000691125 -0.002205224 0.036085278
v 0.000516714 -0.003386279 0.036197425
v 0.002744668 -0.003944899 0.036522888
v 0.005774649 -0.003826404 0.037029807
v 0.009310061 -0.003042391 0.037668564
v 0.013004834 -0.001669607 0.038376631
v 0.016497297 0.000157572 0.039084697
v 0.019445584 0.002260289 0.039723454
v 0.021561096 0.004432714 0.040230374
v 0.022636752 0.006462197 0.040555836
v 0.023587347 0.008604248 0.040480142
v 0.022279991 0.009882612 0.040358755
v 0.019868472 0.010487259 0.040006477
v 0.016588844 0.010359000 0.039457791
v 0.012762142 0.009510391 0.038766406
v 0.008762948 0.008024500 0.038000000
v 0.004982733 0.006046776 0.037233594
v 0.001791530 0.003770812 0.036542209
v -0.000498283 0.001419395 0.035993523
v -0.001662565 -0.000777301 0.035641245
v -0.001587347 -0.002604248 0.035519858
v -0.000279991 -0.003882612 0.035641245
v 0.002131528 -0.004487259 0.035993523
v 0.005411156 -0.004359000 0.036542209
v 0.009237858 -0.003510391 0.037233594
v 0.013237052 -0.002024500 0.038000000
v 0.017017267 -0.000046776 0.038766406
v 0.020208470 0.002229188 0.039457791
v 0.022498283 0.004580605 0.040006477
v 0.023662565 0.006777301 0.040358755
v 0.022691125 0.008205224 0.039914722
v 0.021483286 0.009386279 0.039802575
v 0.019255332 0.009944899 0.039477112
v 0.016225351 0.009826404 0.038970193
v 0.012689939 0.009042391 0.038331436
v 0.008995166 0.007669607 0.037623369
v 0.005502703 0.005842428 0.036915303
v 0.002554416 0.003739711 0.036276546
v 0.000438904 0.001567286 0.035769626
v -0.000636752 -0.000462197 0.035444164
v -0.000567260 -0.002150076 0.035332017
v 0.000640579 -0.003331131 0.035444164
v 0.002868533 -0.003889751 0.035769626
v 0.005898514 -0.003771256 0.036276546
v 0.009433926 -0.002987243 0.036915303
v 0.013128699 -0.001614459 0.037623369
v 0.016621162 0.000212720 0.038331436
v 0.019569449 0.002315437 0.038970193
v 0.021684961 0.004487863 0.039477112
v 0.022760617 0.006517345 0.039802575
v 0.020015035 0.007013752 0.039057803
v 0.019090595 0.007917692 0.038971969
v 0.017385393 0.008345242 0.038722871
v 0.015066346 0.008254549 0.038334891
v 0.012360459 0.007654492 0.037846008
v 0.009532602 0.006603808 0.037304077
v 0.006859586 0.005205346 0.036762146
v 0.004603065 0.003595996 0.036273263
v 0.002983922 0.001933294 0.035885284
v 0.002160651 0.000379995 0.035636186
v 0.002213838 -0.000911851 0.035550352
v 0.003138278 -0.001815792 0.035636186
v 0.004843480 -0.002243341 0.035885284
v 0.007162527 -0.002152649 0.036273263
v 0.009868414 -0.001552592 0.036762146
v 0.012696271 -0.000501908 0.037304077
v 0.015369286 0.000896555 0.037846008
v 0.017625808 0.002505904 0.038334891
v 0.019244950 0.004168607 0.038722871
v 0.020068222 0.005721905 0.038971969
v 0.015966487 0.005211223 0.038039842
v 0.015466184 0.005700432 0.037993390
v 0.014543335 0.005931820 0.037858579
v 0.013288276 0.005882737 0.037648606
v 0.011823861 0.005557989 0.037384024
v 0.010293436 0.004989363 0.037090733
v 0.008846810 0.004232520 0.036797442
v 0.007625589 0.003361547 0.036532861
v 0.006749316 0.002461699 0.036322888
v 0.006303764 0.001621059 0.036188077
v 0.006332549 0.000921917 0.036141624
v 0.006832852 0.000432708 0.036188077
v 0.007755701 0.000201320 0.036322888
v 0.009010760 0.000250402 0.036532861
v 0.010475176 0.000575151 0.036797442
v 0.012005601 0.001143777 0.037090733
v 0.013452226 0.001900619 0.037384024
v 0.014673447 0.002771593 0.037648606
v 0.015549721 0.003671441 0.037858579
v 0.015995272 0.004512080 0.037993390
v 0.011161837 0.003072055 0.037015817
f 1 2 3
f 1 3 4
f 1 4 5
f 1 5 6
f 1 6 7
f 1 7 8
f 1 8 9
f 1 9 10
f 1 10 11
f 1 11 12
f 1 12 13
f 1 13 14
f 1 14 15
f 1 15 16
f 1 16 17
f 1 17 18
f 1 18 19
f 1 19 20
f 1 20 21
f 1 21 2
f 2 22 23
f 2 23 3
f 3 23 24
f 3 24 4
f 4 24 25
f 4 25 5
f 5 25 26
f 5 26 6
f 6 26 27
f 6 27 7
f 7 27 28
f 7 28 8
f 8 28 29
f 8 29 9
f 9 29 30
f 9 30 10
f 10 30 31
f 10 31 11
f 11 31 32
f 11 32 12
f 12 32 33
f 12 33 13
f 13 33 34
f 13 34 14
f 14 34 35
f 14 35 15
f 15 35 36
f 15 36 16
f 16 36 37
f 16 37 17
f 17 37 38
f 17 38 18
f 18 38 39
f 18 39 19
f 19 39 40
f 19 40 20
f 20 40 41
f 20 41 21
f 21 41 22
f 21 22 2
f 22 42 43
f 22 43 23
f 23 43 44
f 23 44 24
f 24 44 45
f 24 45 25
f 25 45 46
f 25 46 26
f 26 46 47
f 26 47 27
f 27 47 48
f 27 48 28
f 28 48 49
f 28 49 29
f 29 49 50
f 29 50 30
f 30 50 51
f 30 51 31
f 31 51 52
f 31 52 32
f 32 52 53
f 32 53 33
f 33 53 54
f 33 54 34
f 34 54 55
f 34 55 35
f 35 55 56
f 35 56 36
f 36 56 57
f 36 57 37
f 37 57 58
f 37 58 38
f 38 58 59
f 38 59 39
f 39 59 60
f 39 60 40
f 40 60 61
f 40 61 41
f 41 61 42
f 41 42 22
f 42 62 63
f 42 63 43
f 43 63 64
f 43 64 44
f 44 64 65
f 44 65 45
f 45 65 66
f 45 66 46
f 46 66 67
f 46 67 47
f 47 67 68
f 47 68 48
f 48 68 69
f 48 69 49
f 49 69 70
f 49 70 50
f 50 70 71
f 50 71 51
f 51 71 72
f 51 72 52
f 52 72 73
f 52 73 53
f 53 73 74
f 53 74 54
f 54 74 75
f 54 75 55
f 55 75 76
f 55 76 56
f 56 76 77
f 56 77 57
f 57 77 78
f 57 78 58
f 58 78 79
f 58 79 59
f 59 79 80
f 59 80 60
f 60 80 81
f 60 81 61
f 61 81 62
f 61 62 42
f 62 82 83
f 62 83 63
f 63 83 84
f 63 84 64
f 64 84 85
f 64 85 65
f 65 85 86
f 65 86 66
f 66 86 87
f 66 87 67
f 67 87 88
f 67 88 68
f 68 88 89
f 68 89 69
f 69 89 90
f 69 90 70
f 70 90 91
f 70 91 71
f 71 91 92
f 71 92 72
f 72 92 93
f 72 93 73
f 73 93 94
f 73 94 74
f 74 94 95
f 74 95 75
f 75 95 96
f 75 96 76
f 76 96 97
f 76 97 77
f 77 97 98
f 77 98 78
f 78 98 99
f 78 99 79
f 79 99 100
f 79 100 80
f 80 100 101
f 80 101 81
f 81 101 82
f 81 82 62
f 82 102 103
f 82 103 83
f 83 103 104
f 83 104 84
f 84 104 105
f 84 105 85
f 85 105 106
f 85 106 86
f 86 106 107
f 86 107 87
f 87 107 108
f 87 108 88
f 88 108 109
f 88 109 89
f 89 109 110
f 89 110 90
f 90 110 111
f 90 111 91
f 91 111 112
f 91 112 92
f 92 112 113
f 92 113 93
f 93 113 114
f 93 114 94
f 94 114 115
f 94 115 95
f 95 115 116
f 95 116 96
f 96 116 117
f 96 117 97
f 97 117 118
f 97 118 98
f 98 118 119
f 98 119 99
f 99 119 120
f 99 120 100
f 100 120 121
f 100 121 101
f 101 121 102
f 101 102 82
f 102 122 123
f 102 123 103
f 103 123 124
f 103 124 104
f 104 124 125
f 104 125 105
f 105 125 126
f 105 126 106
f 106 126 127
f 106 127 107
f 107 127 128
f 107 128 108
f 108 128 129
f 108 129 109
f 109 129 130
f 109 130 110
f 110 130 131
f 110 131 111
f 111 131 132
f 111 132 112
f 112 132 133
f 112 133 113
f 113 133 134
f 113 134 114
f 114 134 135
f 114 135 115
f 115 135 136
f 115 136 116
f 116 136 137
f 116 137 117
f 117 137 138
f 117 138 118
f 118 138 139
f 118 139 119
f 119 139 140
f 119 140 120
f 120 140 141
f 120 141 121
f 121 141 122
f 121 122 102
f 122 142 123
f 123 142 124
f 124 142 125
f 125 142 126
f 126 142 127
f 127 142 128
f 128 142 129
f 129 142 130
f 130 142 131
f 131 142 132
f 132 142 133
f 133 142 134
f 134 142 135
f 135 142 136
f 136 142 137
f 137 142 138
f 138 142 139
f 139 142 140
f 140 142 141
f 141 142 122
