# Generated by scripts/generate_transport_prop_meshes.py
# Convex banana collision segment 4/5
# Units: metres; project-owned procedural asset (MIT)
o banana_collision_3
v 0.008573836 -0.022000000 -0.023328908
v 0.027020262 -0.015661972 -0.011490467
v 0.027020262 0.015661972 -0.011490467
v 0.008573836 0.022000000 -0.023328908
v 0.004026164 -0.022000000 0.018021771
v 0.017179738 -0.015661972 0.014016569
v 0.017179738 0.015661972 0.014016569
v 0.004026164 0.022000000 0.018021771
f 1 4 3
f 1 3 2
f 5 6 7
f 5 7 8
f 1 2 6
f 1 6 5
f 4 8 7
f 4 7 3
f 1 5 8
f 1 8 4
f 2 3 7
f 2 7 6
