# Generated by scripts/generate_transport_prop_meshes.py
# Curved, tapered and subtly ridged banana visual mesh
# Units: metres; project-owned procedural asset (MIT)
o banana_visual
v -0.035500000 0.009832500 0.008000000
v -0.034469641 0.009035037 0.009724203
v -0.033608736 0.007416663 0.011164842
v -0.032802486 0.005583960 0.012514023
v -0.032217892 0.003038410 0.013492281
v -0.032165689 0.000000000 0.013579639
v -0.032439871 -0.002832913 0.013120822
v -0.032802486 -0.005583960 0.012514023
v -0.033471546 -0.007954660 0.011394416
v -0.034469641 -0.009035037 0.009724203
v -0.035500000 -0.009167500 0.008000000
v -0.036530359 -0.009035037 0.006275797
v -0.037528454 -0.007954660 0.004605584
v -0.038197514 -0.005583960 0.003485977
v -0.038560129 -0.002832913 0.002879178
v -0.038834311 -0.000000000 0.002420361
v -0.038782108 0.003038410 0.002507719
v -0.038197514 0.005583960 0.003485977
v -0.037391264 0.007416663 0.004835158
v -0.036530359 0.009035037 0.006275797
v -0.032964286 0.010941429 0.006484694
v -0.031776681 0.010054026 0.008548469
v -0.030784391 0.008253129 0.010272833
v -0.029855096 0.006213730 0.011887727
v -0.029181286 0.003381087 0.013058647
v -0.029121116 0.000000000 0.013163210
v -0.029437141 -0.003152415 0.012614032
v -0.029855096 -0.006213730 0.011887727
v -0.030626263 -0.008851802 0.010547621
v -0.031776681 -0.010054026 0.008548469
v -0.032964286 -0.010201429 0.006484694
v -0.034151891 -0.010054026 0.004420919
v -0.035302308 -0.008851802 0.002421767
v -0.036073476 -0.006213730 0.001081661
v -0.036491430 -0.003152415 0.000355356
v -0.036807456 -0.000000000 -0.000193822
v -0.036747285 0.003381087 -0.000089260
v -0.036073476 0.006213730 0.001081661
v -0.035144181 0.008253129 0.002696554
v -0.034151891 0.010054026 0.004420919
v -0.030428571 0.012050357 0.005081633
v -0.029136843 0.011073015 0.007513410
v -0.028057553 0.009089595 0.009545255
v -0.027046781 0.006843500 0.011448108
v -0.026313895 0.003723765 0.012827822
v -0.026248449 0.000000000 0.012951030
v -0.026592183 -0.003471916 0.012303925
v -0.027046781 -0.006843500 0.011448108
v -0.027885562 -0.009748944 0.009869041
v -0.029136843 -0.011073015 0.007513410
v -0.030428571 -0.011235357 0.005081633
v -0.031720300 -0.011073015 0.002649855
v -0.032971581 -0.009748944 0.000294224
v -0.033810361 -0.006843500 -0.001284843
v -0.034264960 -0.003471916 -0.002140660
v -0.034608694 -0.000000000 -0.002787764
v -0.034543248 0.003723765 -0.002664557
v -0.033810361 0.006843500 -0.001284843
v -0.032799590 0.009089595 0.000618010
v -0.031720300 0.011073015 0.002649855
v -0.027892857 0.013159286 0.003790816
v -0.026524334 0.012092004 0.006601378
v -0.025380880 0.009926061 0.008949712
v -0.024310017 0.007473270 0.011148963
v -0.023533560 0.004066443 0.012743587
v -0.023464223 0.000000000 0.012885986
v -0.023828392 -0.003791418 0.012138086
v -0.024310017 -0.007473270 0.011148963
v -0.025198664 -0.010646086 0.009323933
v -0.026524334 -0.012092004 0.006601378
v -0.027892857 -0.012269286 0.003790816
v -0.029261380 -0.012092004 0.000980254
v -0.030587051 -0.010646086 -0.001742300
v -0.031475697 -0.007473270 -0.003567330
v -0.031957322 -0.003791418 -0.004556453
v -0.032321491 -0.000000000 -0.005304353
v -0.032252154 0.004066443 -0.005161954
v -0.031475697 0.007473270 -0.003567330
v -0.030404835 0.009926061 -0.001368080
v -0.029261380 0.012092004 0.000980254
v -0.025357143 0.014268214 0.002612245
v -0.023941041 0.013110993 0.005811347
v -0.022757833 0.010762526 0.008484322
v -0.021649741 0.008103040 0.010987603
v -0.020846289 0.004409121 0.012802673
v -0.020774542 0.000000000 0.012964757
v -0.021151371 -0.004110919 0.012113465
v -0.021649741 -0.008103040 0.010987603
v -0.022569282 -0.011543228 0.008910276
v -0.023941041 -0.013110993 0.005811347
v -0.025357143 -0.013303214 0.002612245
v -0.026773244 -0.013110993 -0.000586857
v -0.028145004 -0.011543228 -0.003685786
v -0.029064545 -0.008103040 -0.005763114
v -0.029562915 -0.004110919 -0.006888976
v -0.029939744 -0.000000000 -0.007740267
v -0.029867996 0.004409121 -0.007578183
v -0.029064545 0.008103040 -0.005763114
v -0.027956453 0.010762526 -0.003259832
v -0.026773244 0.013110993 -0.000586857
v -0.022821429 0.015377143 0.001545918
v -0.021388771 0.014129983 0.005142035
v -0.020191729 0.011598992 0.008146730
v -0.019070681 0.008732809 0.010960673
v -0.018257836 0.004751798 0.013000996
v -0.018185250 0.000000000 0.013183195
v -0.018566485 -0.004430421 0.012226256
v -0.019070681 -0.008732809 0.010960673
v -0.020000973 -0.012440370 0.008625546
v -0.021388771 -0.014129983 0.005142035
v -0.022821429 -0.014337143 0.001545918
v -0.024254087 -0.014129983 -0.002050198
v -0.025641884 -0.012440370 -0.005533709
v -0.026572176 -0.008732809 -0.007868836
v -0.027076372 -0.004430421 -0.009134420
v -0.027457607 -0.000000000 -0.010091358
v -0.027385021 0.004751798 -0.009909159
v -0.026572176 0.008732809 -0.007868836
v -0.025451128 0.011598992 -0.005054894
v -0.024254087 0.014129983 -0.002050198
v -0.020285714 0.016486071 0.000591837
v -0.018869194 0.015148972 0.004591896
v -0.017685637 0.012435458 0.007934101
v -0.016577217 0.009362579 0.011064127
v -0.015773528 0.005094476 0.013333634
v -0.015701760 0.000000000 0.013536299
v -0.016078700 -0.004749922 0.012471870
v -0.016577217 -0.009362579 0.011064127
v -0.017497030 -0.013337512 0.008466701
v -0.018869194 -0.015148972 0.004591896
v -0.020285714 -0.015371071 0.000591837
v -0.021702234 -0.015148972 -0.003408222
v -0.023074398 -0.013337512 -0.007283027
v -0.023994211 -0.009362579 -0.009880453
v -0.024492728 -0.004749922 -0.011288197
v -0.024869669 -0.000000000 -0.012352626
v -0.024797900 0.005094476 -0.012149961
v -0.023994211 0.009362579 -0.009880453
v -0.022885792 0.012435458 -0.006750428
v -0.021702234 0.015148972 -0.003408222
v -0.017750000 0.017595000 -0.000250000
v -0.016383792 0.016167961 0.004159126
v -0.015242272 0.013271924 0.007843123
v -0.014173221 0.009992349 0.011293241
v -0.013398078 0.005437154 0.013794840
v -0.013328858 0.000000000 0.014018231
v -0.013692411 -0.005069424 0.012844948
v -0.014173221 -0.009992349 0.011293241
v -0.015060364 -0.014234654 0.008430189
v -0.016383792 -0.016167961 0.004159126
v -0.017750000 -0.016405000 -0.000250000
v -0.019116208 -0.016167961 -0.004659126
v -0.020439636 -0.014234654 -0.008930189
v -0.021326779 -0.009992349 -0.011793241
v -0.021807589 -0.005069424 -0.013344948
v -0.022171142 -0.000000000 -0.014518231
v -0.022101922 0.005437154 -0.014294840
v -0.021326779 0.009992349 -0.011793241
v -0.020257728 0.013271924 -0.008343123
v -0.019116208 0.016167961 -0.004659126
v -0.015214286 0.018703929 -0.000979592
v -0.013933788 0.017186950 0.003841677
v -0.012863882 0.014108390 0.007870035
v -0.011861899 0.010622119 0.011642653
v -0.011135385 0.005779832 0.014378089
v -0.011070507 0.000000000 0.014622361
v -0.011411252 -0.005388925 0.013339405
v -0.011861899 -0.010622119 0.011642653
v -0.012693386 -0.015131796 0.008511977
v -0.013933788 -0.017186950 0.003841677
v -0.015214286 -0.017438929 -0.000979592
v -0.016494784 -0.017186950 -0.005800860
v -0.017735185 -0.015131796 -0.010471161
v -0.018566673 -0.010622119 -0.013601837
v -0.019017319 -0.005388925 -0.015298589
v -0.019358064 -0.000000000 -0.016581545
v -0.019293187 0.005779832 -0.016337273
v -0.018566673 0.010622119 -0.013601837
v -0.017564690 0.014108390 -0.009829219
v -0.016494784 0.017186950 -0.005800860
v -0.012678571 0.019812857 -0.001596939
v -0.011520091 0.018205939 0.003637285
v -0.010552136 0.014944855 0.008010683
v -0.009645631 0.011251889 0.012106437
v -0.008988346 0.006122510 0.015076170
v -0.008929651 0.000000000 0.015341365
v -0.009237927 -0.005708427 0.013948520
v -0.009645631 -0.011251889 0.012106437
v -0.010397887 -0.016028938 0.008707609
v -0.011520091 -0.018205939 0.003637285
v -0.012678571 -0.018472857 -0.001596939
v -0.013837052 -0.018205939 -0.006831163
v -0.014959256 -0.016028938 -0.011901487
v -0.015711512 -0.011251889 -0.015300314
v -0.016119216 -0.005708427 -0.017142398
v -0.016427492 -0.000000000 -0.018535243
v -0.016368797 0.006122510 -0.018270048
v -0.015711512 0.011251889 -0.015300314
v -0.014805007 0.014944855 -0.011204561
v -0.013837052 0.018205939 -0.006831163
v -0.010142857 0.020921786 -0.002102041
v -0.009143242 0.019224928 0.003543514
v -0.008308024 0.015781321 0.008260595
v -0.007525830 0.011881659 0.012678213
v -0.006958680 0.006465187 0.015881323
v -0.006908034 0.000000000 0.016167358
v -0.007174035 -0.006027928 0.014665057
v -0.007525830 -0.011881659 0.012678213
v -0.008174927 -0.016926080 0.009012289
v -0.009143242 -0.019224928 0.003543514
v -0.010142857 -0.019506786 -0.002102041
v -0.011142472 -0.019224928 -0.007747596
v -0.012110787 -0.016926080 -0.013216371
v -0.012759884 -0.011881659 -0.016882295
v -0.013111679 -0.006027928 -0.018869139
v -0.013377680 -0.000000000 -0.020371440
v -0.013327034 0.006465187 -0.020085405
v -0.012759884 0.011881659 -0.016882295
v -0.011977690 0.015781321 -0.012464677
v -0.011142472 0.019224928 -0.007747596
v -0.007607143 0.022030714 -0.002494898
v -0.006803363 0.020243917 0.003557810
v -0.006131773 0.016617787 0.008615085
v -0.005502819 0.012511429 0.013351298
v -0.005046780 0.006807865 0.016785414
v -0.005006056 0.000000000 0.017092077
v -0.005219944 -0.006347430 0.015481431
v -0.005502819 -0.012511429 0.013351298
v -0.006024751 -0.017823222 0.009420990
v -0.006803363 -0.020243917 0.003557810
v -0.007607143 -0.020540714 -0.002494898
v -0.008410923 -0.020243917 -0.008547606
v -0.009189534 -0.017823222 -0.014410786
v -0.009711467 -0.012511429 -0.018341094
v -0.009994342 -0.006347430 -0.020471227
v -0.010208230 -0.000000000 -0.022081873
v -0.010167506 0.006807865 -0.021775210
v -0.009711467 0.012511429 -0.018341094
v -0.009082513 0.016617787 -0.013604880
v -0.008410923 0.020243917 -0.008547606
v -0.005071429 0.022252500 -0.002775510
v -0.004526407 0.020447715 0.003380751
v -0.004071021 0.016785080 0.008524548
v -0.003644545 0.012637383 0.013341791
v -0.003335317 0.006876401 0.016834660
v -0.003307703 0.000000000 0.017146570
v -0.003452735 -0.006411330 0.015508368
v -0.003644545 -0.012637383 0.013341791
v -0.003998453 -0.018002651 0.009344241
v -0.004526407 -0.020447715 0.003380751
v -0.005071429 -0.020747500 -0.002775510
v -0.005616450 -0.020447715 -0.008931771
v -0.006144405 -0.018002651 -0.014895262
v -0.006498312 -0.012637383 -0.018892812
v -0.006690122 -0.006411330 -0.021059388
v -0.006835154 -0.000000000 -0.022697590
v -0.006807540 0.006876401 -0.022385680
v -0.006498312 0.012637383 -0.018892812
v -0.006071836 0.016785080 -0.014075568
v -0.005616450 0.020447715 -0.008931771
v -0.002535714 0.022252500 -0.002943878
v -0.002262406 0.020447715 0.003230416
v -0.002034045 0.016785080 0.008389280
v -0.001820183 0.012637383 0.013220633
v -0.001665116 0.006876401 0.016723733
v -0.001651269 0.000000000 0.017036557
v -0.001723997 -0.006411330 0.015393556
v -0.001820183 -0.012637383 0.013220633
v -0.001997655 -0.018002651 0.009211374
v -0.002262406 -0.020447715 0.003230416
v -0.002535714 -0.020747500 -0.002943878
v -0.002809023 -0.020447715 -0.009118171
v -0.003073774 -0.018002651 -0.015099129
v -0.003251246 -0.012637383 -0.019108388
v -0.003347432 -0.006411330 -0.021281312
v -0.003420160 -0.000000000 -0.022924312
v -0.003406313 0.006876401 -0.022611488
v -0.003251246 0.012637383 -0.019108388
v -0.003037383 0.016785080 -0.014277035
v -0.002809023 0.020447715 -0.009118171
v 0.000000000 0.022252500 -0.003000000
v 0.000000000 0.020447715 0.003180340
v 0.000000000 0.016785080 0.008344255
v 0.000000000 0.012637383 0.013180340
v 0.000000000 0.006876401 0.016686870
v 0.000000000 0.000000000 0.017000000
v 0.000000000 -0.006411330 0.015355391
v 0.000000000 -0.012637383 0.013180340
v 0.000000000 -0.018002651 0.009167155
v 0.000000000 -0.020447715 0.003180340
v 0.000000000 -0.020747500 -0.003000000
v 0.000000000 -0.020447715 -0.009180340
v 0.000000000 -0.018002651 -0.015167155
v 0.000000000 -0.012637383 -0.019180340
v 0.000000000 -0.006411330 -0.021355391
v 0.000000000 -0.000000000 -0.023000000
v 0.000000000 0.006876401 -0.022686870
v 0.000000000 0.012637383 -0.019180340
v 0.000000000 0.016785080 -0.014344255
v 0.000000000 0.020447715 -0.009180340
v 0.002535714 0.022252500 -0.002943878
v 0.002262406 0.020447715 0.003230416
v 0.002034045 0.016785080 0.008389280
v 0.001820183 0.012637383 0.013220633
v 0.001665116 0.006876401 0.016723733
v 0.001651269 0.000000000 0.017036557
v 0.001723997 -0.006411330 0.015393556
v 0.001820183 -0.012637383 0.013220633
v 0.001997655 -0.018002651 0.009211374
v 0.002262406 -0.020447715 0.003230416
v 0.002535714 -0.020747500 -0.002943878
v 0.002809023 -0.020447715 -0.009118171
v 0.003073774 -0.018002651 -0.015099129
v 0.003251246 -0.012637383 -0.019108388
v 0.003347432 -0.006411330 -0.021281312
v 0.003420160 -0.000000000 -0.022924312
v 0.003406313 0.006876401 -0.022611488
v 0.003251246 0.012637383 -0.019108388
v 0.003037383 0.016785080 -0.014277035
v 0.002809023 0.020447715 -0.009118171
v 0.005071429 0.022252500 -0.002775510
v 0.004526407 0.020447715 0.003380751
v 0.004071021 0.016785080 0.008524548
v 0.003644545 0.012637383 0.013341791
v 0.003335317 0.006876401 0.016834660
v 0.003307703 0.000000000 0.017146570
v 0.003452735 -0.006411330 0.015508368
v 0.003644545 -0.012637383 0.013341791
v 0.003998453 -0.018002651 0.009344241
v 0.004526407 -0.020447715 0.003380751
v 0.005071429 -0.020747500 -0.002775510
v 0.005616450 -0.020447715 -0.008931771
v 0.006144405 -0.018002651 -0.014895262
v 0.006498312 -0.012637383 -0.018892812
v 0.006690122 -0.006411330 -0.021059388
v 0.006835154 -0.000000000 -0.022697590
v 0.006807540 0.006876401 -0.022385680
v 0.006498312 0.012637383 -0.018892812
v 0.006071836 0.016785080 -0.014075568
v 0.005616450 0.020447715 -0.008931771
v 0.007607143 0.022030714 -0.002494898
v 0.006803363 0.020243917 0.003557810
v 0.006131773 0.016617787 0.008615085
v 0.005502819 0.012511429 0.013351298
v 0.005046780 0.006807865 0.016785414
v 0.005006056 0.000000000 0.017092077
v 0.005219944 -0.006347430 0.015481431
v 0.005502819 -0.012511429 0.013351298
v 0.006024751 -0.017823222 0.009420990
v 0.006803363 -0.020243917 0.003557810
v 0.007607143 -0.020540714 -0.002494898
v 0.008410923 -0.020243917 -0.008547606
v 0.009189534 -0.017823222 -0.014410786
v 0.009711467 -0.012511429 -0.018341094
v 0.009994342 -0.006347430 -0.020471227
v 0.010208230 -0.000000000 -0.022081873
v 0.010167506 0.006807865 -0.021775210
v 0.009711467 0.012511429 -0.018341094
v 0.009082513 0.016617787 -0.013604880
v 0.008410923 0.020243917 -0.008547606
v 0.010142857 0.020921786 -0.002102041
v 0.009143242 0.019224928 0.003543514
v 0.008308024 0.015781321 0.008260595
v 0.007525830 0.011881659 0.012678213
v 0.006958680 0.006465187 0.015881323
v 0.006908034 0.000000000 0.016167358
v 0.007174035 -0.006027928 0.014665057
v 0.007525830 -0.011881659 0.012678213
v 0.008174927 -0.016926080 0.009012289
v 0.009143242 -0.019224928 0.003543514
v 0.010142857 -0.019506786 -0.002102041
v 0.011142472 -0.019224928 -0.007747596
v 0.012110787 -0.016926080 -0.013216371
v 0.012759884 -0.011881659 -0.016882295
v 0.013111679 -0.006027928 -0.018869139
v 0.013377680 -0.000000000 -0.020371440
v 0.013327034 0.006465187 -0.020085405
v 0.012759884 0.011881659 -0.016882295
v 0.011977690 0.015781321 -0.012464677
v 0.011142472 0.019224928 -0.007747596
v 0.012678571 0.019812857 -0.001596939
v 0.011520091 0.018205939 0.003637285
v 0.010552136 0.014944855 0.008010683
v 0.009645631 0.011251889 0.012106437
v 0.008988346 0.006122510 0.015076170
v 0.008929651 0.000000000 0.015341365
v 0.009237927 -0.005708427 0.013948520
v 0.009645631 -0.011251889 0.012106437
v 0.010397887 -0.016028938 0.008707609
v 0.011520091 -0.018205939 0.003637285
v 0.012678571 -0.018472857 -0.001596939
v 0.013837052 -0.018205939 -0.006831163
v 0.014959256 -0.016028938 -0.011901487
v 0.015711512 -0.011251889 -0.015300314
v 0.016119216 -0.005708427 -0.017142398
v 0.016427492 -0.000000000 -0.018535243
v 0.016368797 0.006122510 -0.018270048
v 0.015711512 0.011251889 -0.015300314
v 0.014805007 0.014944855 -0.011204561
v 0.013837052 0.018205939 -0.006831163
v 0.015214286 0.018703929 -0.000979592
v 0.013933788 0.017186950 0.003841677
v 0.012863882 0.014108390 0.007870035
v 0.011861899 0.010622119 0.011642653
v 0.011135385 0.005779832 0.014378089
v 0.011070507 0.000000000 0.014622361
v 0.011411252 -0.005388925 0.013339405
v 0.011861899 -0.010622119 0.011642653
v 0.012693386 -0.015131796 0.008511977
v 0.013933788 -0.017186950 0.003841677
v 0.015214286 -0.017438929 -0.000979592
v 0.016494784 -0.017186950 -0.005800860
v 0.017735185 -0.015131796 -0.010471161
v 0.018566673 -0.010622119 -0.013601837
v 0.019017319 -0.005388925 -0.015298589
v 0.019358064 -0.000000000 -0.016581545
v 0.019293187 0.005779832 -0.016337273
v 0.018566673 0.010622119 -0.013601837
v 0.017564690 0.014108390 -0.009829219
v 0.016494784 0.017186950 -0.005800860
v 0.017750000 0.017595000 -0.000250000
v 0.016383792 0.016167961 0.004159126
v 0.015242272 0.013271924 0.007843123
v 0.014173221 0.009992349 0.011293241
v 0.013398078 0.005437154 0.013794840
v 0.013328858 0.000000000 0.014018231
v 0.013692411 -0.005069424 0.012844948
v 0.014173221 -0.009992349 0.011293241
v 0.015060364 -0.014234654 0.008430189
v 0.016383792 -0.016167961 0.004159126
v 0.017750000 -0.016405000 -0.000250000
v 0.019116208 -0.016167961 -0.004659126
v 0.020439636 -0.014234654 -0.008930189
v 0.021326779 -0.009992349 -0.011793241
v 0.021807589 -0.005069424 -0.013344948
v 0.022171142 -0.000000000 -0.014518231
v 0.022101922 0.005437154 -0.014294840
v 0.021326779 0.009992349 -0.011793241
v 0.020257728 0.013271924 -0.008343123
v 0.019116208 0.016167961 -0.004659126
v 0.020285714 0.016486071 0.000591837
v 0.018869194 0.015148972 0.004591896
v 0.017685637 0.012435458 0.007934101
v 0.016577217 0.009362579 0.011064127
v 0.015773528 0.005094476 0.013333634
v 0.015701760 0.000000000 0.013536299
v 0.016078700 -0.004749922 0.012471870
v 0.016577217 -0.009362579 0.011064127
v 0.017497030 -0.013337512 0.008466701
v 0.018869194 -0.015148972 0.004591896
v 0.020285714 -0.015371071 0.000591837
v 0.021702234 -0.015148972 -0.003408222
v 0.023074398 -0.013337512 -0.007283027
v 0.023994211 -0.009362579 -0.009880453
v 0.024492728 -0.004749922 -0.011288197
v 0.024869669 -0.000000000 -0.012352626
v 0.024797900 0.005094476 -0.012149961
v 0.023994211 0.009362579 -0.009880453
v 0.022885792 0.012435458 -0.006750428
v 0.021702234 0.015148972 -0.003408222
v 0.022821429 0.015377143 0.001545918
v 0.021388771 0.014129983 0.005142035
v 0.020191729 0.011598992 0.008146730
v 0.019070681 0.008732809 0.010960673
v 0.018257836 0.004751798 0.013000996
v 0.018185250 0.000000000 0.013183195
v 0.018566485 -0.004430421 0.012226256
v 0.019070681 -0.008732809 0.010960673
v 0.020000973 -0.012440370 0.008625546
v 0.021388771 -0.014129983 0.005142035
v 0.022821429 -0.014337143 0.001545918
v 0.024254087 -0.014129983 -0.002050198
v 0.025641884 -0.012440370 -0.005533709
v 0.026572176 -0.008732809 -0.007868836
v 0.027076372 -0.004430421 -0.009134420
v 0.027457607 -0.000000000 -0.010091358
v 0.027385021 0.004751798 -0.009909159
v 0.026572176 0.008732809 -0.007868836
v 0.025451128 0.011598992 -0.005054894
v 0.024254087 0.014129983 -0.002050198
v 0.025357143 0.014268214 0.002612245
v 0.023941041 0.013110993 0.005811347
v 0.022757833 0.010762526 0.008484322
v 0.021649741 0.008103040 0.010987603
v 0.020846289 0.004409121 0.012802673
v 0.020774542 0.000000000 0.012964757
v 0.021151371 -0.004110919 0.012113465
v 0.021649741 -0.008103040 0.010987603
v 0.022569282 -0.011543228 0.008910276
v 0.023941041 -0.013110993 0.005811347
v 0.025357143 -0.013303214 0.002612245
v 0.026773244 -0.013110993 -0.000586857
v 0.028145004 -0.011543228 -0.003685786
v 0.029064545 -0.008103040 -0.005763114
v 0.029562915 -0.004110919 -0.006888976
v 0.029939744 -0.000000000 -0.007740267
v 0.029867996 0.004409121 -0.007578183
v 0.029064545 0.008103040 -0.005763114
v 0.027956453 0.010762526 -0.003259832
v 0.026773244 0.013110993 -0.000586857
v 0.027892857 0.013159286 0.003790816
v 0.026524334 0.012092004 0.006601378
v 0.025380880 0.009926061 0.008949712
v 0.024310017 0.007473270 0.011148963
v 0.023533560 0.004066443 0.012743587
v 0.023464223 0.000000000 0.012885986
v 0.023828392 -0.003791418 0.012138086
v 0.024310017 -0.007473270 0.011148963
v 0.025198664 -0.010646086 0.009323933
v 0.026524334 -0.012092004 0.006601378
v 0.027892857 -0.012269286 0.003790816
v 0.029261380 -0.012092004 0.000980254
v 0.030587051 -0.010646086 -0.001742300
v 0.031475697 -0.007473270 -0.003567330
v 0.031957322 -0.003791418 -0.004556453
v 0.032321491 -0.000000000 -0.005304353
v 0.032252154 0.004066443 -0.005161954
v 0.031475697 0.007473270 -0.003567330
v 0.030404835 0.009926061 -0.001368080
v 0.029261380 0.012092004 0.000980254
v 0.030428571 0.012050357 0.005081633
v 0.029136843 0.011073015 0.007513410
v 0.028057553 0.009089595 0.009545255
v 0.027046781 0.006843500 0.011448108
v 0.026313895 0.003723765 0.012827822
v 0.026248449 0.000000000 0.012951030
v 0.026592183 -0.003471916 0.012303925
v 0.027046781 -0.006843500 0.011448108
v 0.027885562 -0.009748944 0.009869041
v 0.029136843 -0.011073015 0.007513410
v 0.030428571 -0.011235357 0.005081633
v 0.031720300 -0.011073015 0.002649855
v 0.032971581 -0.009748944 0.000294224
v 0.033810361 -0.006843500 -0.001284843
v 0.034264960 -0.003471916 -0.002140660
v 0.034608694 -0.000000000 -0.002787764
v 0.034543248 0.003723765 -0.002664557
v 0.033810361 0.006843500 -0.001284843
v 0.032799590 0.009089595 0.000618010
v 0.031720300 0.011073015 0.002649855
v 0.032964286 0.010941429 0.006484694
v 0.031776681 0.010054026 0.008548469
v 0.030784391 0.008253129 0.010272833
v 0.029855096 0.006213730 0.011887727
v 0.029181286 0.003381087 0.013058647
v 0.029121116 0.000000000 0.013163210
v 0.029437141 -0.003152415 0.012614032
v 0.029855096 -0.006213730 0.011887727
v 0.030626263 -0.008851802 0.010547621
v 0.031776681 -0.010054026 0.008548469
v 0.032964286 -0.010201429 0.006484694
v 0.034151891 -0.010054026 0.004420919
v 0.035302308 -0.008851802 0.002421767
v 0.036073476 -0.006213730 0.001081661
v 0.036491430 -0.003152415 0.000355356
v 0.036807456 -0.000000000 -0.000193822
v 0.036747285 0.003381087 -0.000089260
v 0.036073476 0.006213730 0.001081661
v 0.035144181 0.008253129 0.002696554
v 0.034151891 0.010054026 0.004420919
v 0.035500000 0.009832500 0.008000000
v 0.034469641 0.009035037 0.009724203
v 0.033608736 0.007416663 0.011164842
v 0.032802486 0.005583960 0.012514023
v 0.032217892 0.003038410 0.013492281
v 0.032165689 0.000000000 0.013579639
v 0.032439871 -0.002832913 0.013120822
v 0.032802486 -0.005583960 0.012514023
v 0.033471546 -0.007954660 0.011394416
v 0.034469641 -0.009035037 0.009724203
v 0.035500000 -0.009167500 0.008000000
v 0.036530359 -0.009035037 0.006275797
v 0.037528454 -0.007954660 0.004605584
v 0.038197514 -0.005583960 0.003485977
v 0.038560129 -0.002832913 0.002879178
v 0.038834311 -0.000000000 0.002420361
v 0.038782108 0.003038410 0.002507719
v 0.038197514 0.005583960 0.003485977
v 0.037391264 0.007416663 0.004835158
v 0.036530359 0.009035037 0.006275797
v -0.035500000 0.000000000 0.008000000
v 0.035500000 0.000000000 0.008000000
f 1 2 22
f 1 22 21
f 2 3 23
f 2 23 22
f 3 4 24
f 3 24 23
f 4 5 25
f 4 25 24
f 5 6 26
f 5 26 25
f 6 7 27
f 6 27 26
f 7 8 28
f 7 28 27
f 8 9 29
f 8 29 28
f 9 10 30
f 9 30 29
f 10 11 31
f 10 31 30
f 11 12 32
f 11 32 31
f 12 13 33
f 12 33 32
f 13 14 34
f 13 34 33
f 14 15 35
f 14 35 34
f 15 16 36
f 15 36 35
f 16 17 37
f 16 37 36
f 17 18 38
f 17 38 37
f 18 19 39
f 18 39 38
f 19 20 40
f 19 40 39
f 20 1 21
f 20 21 40
f 21 22 42
f 21 42 41
f 22 23 43
f 22 43 42
f 23 24 44
f 23 44 43
f 24 25 45
f 24 45 44
f 25 26 46
f 25 46 45
f 26 27 47
f 26 47 46
f 27 28 48
f 27 48 47
f 28 29 49
f 28 49 48
f 29 30 50
f 29 50 49
f 30 31 51
f 30 51 50
f 31 32 52
f 31 52 51
f 32 33 53
f 32 53 52
f 33 34 54
f 33 54 53
f 34 35 55
f 34 55 54
f 35 36 56
f 35 56 55
f 36 37 57
f 36 57 56
f 37 38 58
f 37 58 57
f 38 39 59
f 38 59 58
f 39 40 60
f 39 60 59
f 40 21 41
f 40 41 60
f 41 42 62
f 41 62 61
f 42 43 63
f 42 63 62
f 43 44 64
f 43 64 63
f 44 45 65
f 44 65 64
f 45 46 66
f 45 66 65
f 46 47 67
f 46 67 66
f 47 48 68
f 47 68 67
f 48 49 69
f 48 69 68
f 49 50 70
f 49 70 69
f 50 51 71
f 50 71 70
f 51 52 72
f 51 72 71
f 52 53 73
f 52 73 72
f 53 54 74
f 53 74 73
f 54 55 75
f 54 75 74
f 55 56 76
f 55 76 75
f 56 57 77
f 56 77 76
f 57 58 78
f 57 78 77
f 58 59 79
f 58 79 78
f 59 60 80
f 59 80 79
f 60 41 61
f 60 61 80
f 61 62 82
f 61 82 81
f 62 63 83
f 62 83 82
f 63 64 84
f 63 84 83
f 64 65 85
f 64 85 84
f 65 66 86
f 65 86 85
f 66 67 87
f 66 87 86
f 67 68 88
f 67 88 87
f 68 69 89
f 68 89 88
f 69 70 90
f 69 90 89
f 70 71 91
f 70 91 90
f 71 72 92
f 71 92 91
f 72 73 93
f 72 93 92
f 73 74 94
f 73 94 93
f 74 75 95
f 74 95 94
f 75 76 96
f 75 96 95
f 76 77 97
f 76 97 96
f 77 78 98
f 77 98 97
f 78 79 99
f 78 99 98
f 79 80 100
f 79 100 99
f 80 61 81
f 80 81 100
f 81 82 102
f 81 102 101
f 82 83 103
f 82 103 102
f 83 84 104
f 83 104 103
f 84 85 105
f 84 105 104
f 85 86 106
f 85 106 105
f 86 87 107
f 86 107 106
f 87 88 108
f 87 108 107
f 88 89 109
f 88 109 108
f 89 90 110
f 89 110 109
f 90 91 111
f 90 111 110
f 91 92 112
f 91 112 111
f 92 93 113
f 92 113 112
f 93 94 114
f 93 114 113
f 94 95 115
f 94 115 114
f 95 96 116
f 95 116 115
f 96 97 117
f 96 117 116
f 97 98 118
f 97 118 117
f 98 99 119
f 98 119 118
f 99 100 120
f 99 120 119
f 100 81 101
f 100 101 120
f 101 102 122
f 101 122 121
f 102 103 123
f 102 123 122
f 103 104 124
f 103 124 123
f 104 105 125
f 104 125 124
f 105 106 126
f 105 126 125
f 106 107 127
f 106 127 126
f 107 108 128
f 107 128 127
f 108 109 129
f 108 129 128
f 109 110 130
f 109 130 129
f 110 111 131
f 110 131 130
f 111 112 132
f 111 132 131
f 112 113 133
f 112 133 132
f 113 114 134
f 113 134 133
f 114 115 135
f 114 135 134
f 115 116 136
f 115 136 135
f 116 117 137
f 116 137 136
f 117 118 138
f 117 138 137
f 118 119 139
f 118 139 138
f 119 120 140
f 119 140 139
f 120 101 121
f 120 121 140
f 121 122 142
f 121 142 141
f 122 123 143
f 122 143 142
f 123 124 144
f 123 144 143
f 124 125 145
f 124 145 144
f 125 126 146
f 125 146 145
f 126 127 147
f 126 147 146
f 127 128 148
f 127 148 147
f 128 129 149
f 128 149 148
f 129 130 150
f 129 150 149
f 130 131 151
f 130 151 150
f 131 132 152
f 131 152 151
f 132 133 153
f 132 153 152
f 133 134 154
f 133 154 153
f 134 135 155
f 134 155 154
f 135 136 156
f 135 156 155
f 136 137 157
f 136 157 156
f 137 138 158
f 137 158 157
f 138 139 159
f 138 159 158
f 139 140 160
f 139 160 159
f 140 121 141
f 140 141 160
f 141 142 162
f 141 162 161
f 142 143 163
f 142 163 162
f 143 144 164
f 143 164 163
f 144 145 165
f 144 165 164
f 145 146 166
f 145 166 165
f 146 147 167
f 146 167 166
f 147 148 168
f 147 168 167
f 148 149 169
f 148 169 168
f 149 150 170
f 149 170 169
f 150 151 171
f 150 171 170
f 151 152 172
f 151 172 171
f 152 153 173
f 152 173 172
f 153 154 174
f 153 174 173
f 154 155 175
f 154 175 174
f 155 156 176
f 155 176 175
f 156 157 177
f 156 177 176
f 157 158 178
f 157 178 177
f 158 159 179
f 158 179 178
f 159 160 180
f 159 180 179
f 160 141 161
f 160 161 180
f 161 162 182
f 161 182 181
f 162 163 183
f 162 183 182
f 163 164 184
f 163 184 183
f 164 165 185
f 164 185 184
f 165 166 186
f 165 186 185
f 166 167 187
f 166 187 186
f 167 168 188
f 167 188 187
f 168 169 189
f 168 189 188
f 169 170 190
f 169 190 189
f 170 171 191
f 170 191 190
f 171 172 192
f 171 192 191
f 172 173 193
f 172 193 192
f 173 174 194
f 173 194 193
f 174 175 195
f 174 195 194
f 175 176 196
f 175 196 195
f 176 177 197
f 176 197 196
f 177 178 198
f 177 198 197
f 178 179 199
f 178 199 198
f 179 180 200
f 179 200 199
f 180 161 181
f 180 181 200
f 181 182 202
f 181 202 201
f 182 183 203
f 182 203 202
f 183 184 204
f 183 204 203
f 184 185 205
f 184 205 204
f 185 186 206
f 185 206 205
f 186 187 207
f 186 207 206
f 187 188 208
f 187 208 207
f 188 189 209
f 188 209 208
f 189 190 210
f 189 210 209
f 190 191 211
f 190 211 210
f 191 192 212
f 191 212 211
f 192 193 213
f 192 213 212
f 193 194 214
f 193 214 213
f 194 195 215
f 194 215 214
f 195 196 216
f 195 216 215
f 196 197 217
f 196 217 216
f 197 198 218
f 197 218 217
f 198 199 219
f 198 219 218
f 199 200 220
f 199 220 219
f 200 181 201
f 200 201 220
f 201 202 222
f 201 222 221
f 202 203 223
f 202 223 222
f 203 204 224
f 203 224 223
f 204 205 225
f 204 225 224
f 205 206 226
f 205 226 225
f 206 207 227
f 206 227 226
f 207 208 228
f 207 228 227
f 208 209 229
f 208 229 228
f 209 210 230
f 209 230 229
f 210 211 231
f 210 231 230
f 211 212 232
f 211 232 231
f 212 213 233
f 212 233 232
f 213 214 234
f 213 234 233
f 214 215 235
f 214 235 234
f 215 216 236
f 215 236 235
f 216 217 237
f 216 237 236
f 217 218 238
f 217 238 237
f 218 219 239
f 218 239 238
f 219 220 240
f 219 240 239
f 220 201 221
f 220 221 240
f 221 222 242
f 221 242 241
f 222 223 243
f 222 243 242
f 223 224 244
f 223 244 243
f 224 225 245
f 224 245 244
f 225 226 246
f 225 246 245
f 226 227 247
f 226 247 246
f 227 228 248
f 227 248 247
f 228 229 249
f 228 249 248
f 229 230 250
f 229 250 249
f 230 231 251
f 230 251 250
f 231 232 252
f 231 252 251
f 232 233 253
f 232 253 252
f 233 234 254
f 233 254 253
f 234 235 255
f 234 255 254
f 235 236 256
f 235 256 255
f 236 237 257
f 236 257 256
f 237 238 258
f 237 258 257
f 238 239 259
f 238 259 258
f 239 240 260
f 239 260 259
f 240 221 241
f 240 241 260
f 241 242 262
f 241 262 261
f 242 243 263
f 242 263 262
f 243 244 264
f 243 264 263
f 244 245 265
f 244 265 264
f 245 246 266
f 245 266 265
f 246 247 267
f 246 267 266
f 247 248 268
f 247 268 267
f 248 249 269
f 248 269 268
f 249 250 270
f 249 270 269
f 250 251 271
f 250 271 270
f 251 252 272
f 251 272 271
f 252 253 273
f 252 273 272
f 253 254 274
f 253 274 273
f 254 255 275
f 254 275 274
f 255 256 276
f 255 276 275
f 256 257 277
f 256 277 276
f 257 258 278
f 257 278 277
f 258 259 279
f 258 279 278
f 259 260 280
f 259 280 279
f 260 241 261
f 260 261 280
f 261 262 282
f 261 282 281
f 262 263 283
f 262 283 282
f 263 264 284
f 263 284 283
f 264 265 285
f 264 285 284
f 265 266 286
f 265 286 285
f 266 267 287
f 266 287 286
f 267 268 288
f 267 288 287
f 268 269 289
f 268 289 288
f 269 270 290
f 269 290 289
f 270 271 291
f 270 291 290
f 271 272 292
f 271 292 291
f 272 273 293
f 272 293 292
f 273 274 294
f 273 294 293
f 274 275 295
f 274 295 294
f 275 276 296
f 275 296 295
f 276 277 297
f 276 297 296
f 277 278 298
f 277 298 297
f 278 279 299
f 278 299 298
f 279 280 300
f 279 300 299
f 280 261 281
f 280 281 300
f 281 282 302
f 281 302 301
f 282 283 303
f 282 303 302
f 283 284 304
f 283 304 303
f 284 285 305
f 284 305 304
f 285 286 306
f 285 306 305
f 286 287 307
f 286 307 306
f 287 288 308
f 287 308 307
f 288 289 309
f 288 309 308
f 289 290 310
f 289 310 309
f 290 291 311
f 290 311 310
f 291 292 312
f 291 312 311
f 292 293 313
f 292 313 312
f 293 294 314
f 293 314 313
f 294 295 315
f 294 315 314
f 295 296 316
f 295 316 315
f 296 297 317
f 296 317 316
f 297 298 318
f 297 318 317
f 298 299 319
f 298 319 318
f 299 300 320
f 299 320 319
f 300 281 301
f 300 301 320
f 301 302 322
f 301 322 321
f 302 303 323
f 302 323 322
f 303 304 324
f 303 324 323
f 304 305 325
f 304 325 324
f 305 306 326
f 305 326 325
f 306 307 327
f 306 327 326
f 307 308 328
f 307 328 327
f 308 309 329
f 308 329 328
f 309 310 330
f 309 330 329
f 310 311 331
f 310 331 330
f 311 312 332
f 311 332 331
f 312 313 333
f 312 333 332
f 313 314 334
f 313 334 333
f 314 315 335
f 314 335 334
f 315 316 336
f 315 336 335
f 316 317 337
f 316 337 336
f 317 318 338
f 317 338 337
f 318 319 339
f 318 339 338
f 319 320 340
f 319 340 339
f 320 301 321
f 320 321 340
f 321 322 342
f 321 342 341
f 322 323 343
f 322 343 342
f 323 324 344
f 323 344 343
f 324 325 345
f 324 345 344
f 325 326 346
f 325 346 345
f 326 327 347
f 326 347 346
f 327 328 348
f 327 348 347
f 328 329 349
f 328 349 348
f 329 330 350
f 329 350 349
f 330 331 351
f 330 351 350
f 331 332 352
f 331 352 351
f 332 333 353
f 332 353 352
f 333 334 354
f 333 354 353
f 334 335 355
f 334 355 354
f 335 336 356
f 335 356 355
f 336 337 357
f 336 357 356
f 337 338 358
f 337 358 357
f 338 339 359
f 338 359 358
f 339 340 360
f 339 360 359
f 340 321 341
f 340 341 360
f 341 342 362
f 341 362 361
f 342 343 363
f 342 363 362
f 343 344 364
f 343 364 363
f 344 345 365
f 344 365 364
f 345 346 366
f 345 366 365
f 346 347 367
f 346 367 366
f 347 348 368
f 347 368 367
f 348 349 369
f 348 369 368
f 349 350 370
f 349 370 369
f 350 351 371
f 350 371 370
f 351 352 372
f 351 372 371
f 352 353 373
f 352 373 372
f 353 354 374
f 353 374 373
f 354 355 375
f 354 375 374
f 355 356 376
f 355 376 375
f 356 357 377
f 356 377 376
f 357 358 378
f 357 378 377
f 358 359 379
f 358 379 378
f 359 360 380
f 359 380 379
f 360 341 361
f 360 361 380
f 361 362 382
f 361 382 381
f 362 363 383
f 362 383 382
f 363 364 384
f 363 384 383
f 364 365 385
f 364 385 384
f 365 366 386
f 365 386 385
f 366 367 387
f 366 387 386
f 367 368 388
f 367 388 387
f 368 369 389
f 368 389 388
f 369 370 390
f 369 390 389
f 370 371 391
f 370 391 390
f 371 372 392
f 371 392 391
f 372 373 393
f 372 393 392
f 373 374 394
f 373 394 393
f 374 375 395
f 374 395 394
f 375 376 396
f 375 396 395
f 376 377 397
f 376 397 396
f 377 378 398
f 377 398 397
f 378 379 399
f 378 399 398
f 379 380 400
f 379 400 399
f 380 361 381
f 380 381 400
f 381 382 402
f 381 402 401
f 382 383 403
f 382 403 402
f 383 384 404
f 383 404 403
f 384 385 405
f 384 405 404
f 385 386 406
f 385 406 405
f 386 387 407
f 386 407 406
f 387 388 408
f 387 408 407
f 388 389 409
f 388 409 408
f 389 390 410
f 389 410 409
f 390 391 411
f 390 411 410
f 391 392 412
f 391 412 411
f 392 393 413
f 392 413 412
f 393 394 414
f 393 414 413
f 394 395 415
f 394 415 414
f 395 396 416
f 395 416 415
f 396 397 417
f 396 417 416
f 397 398 418
f 397 418 417
f 398 399 419
f 398 419 418
f 399 400 420
f 399 420 419
f 400 381 401
f 400 401 420
f 401 402 422
f 401 422 421
f 402 403 423
f 402 423 422
f 403 404 424
f 403 424 423
f 404 405 425
f 404 425 424
f 405 406 426
f 405 426 425
f 406 407 427
f 406 427 426
f 407 408 428
f 407 428 427
f 408 409 429
f 408 429 428
f 409 410 430
f 409 430 429
f 410 411 431
f 410 431 430
f 411 412 432
f 411 432 431
f 412 413 433
f 412 433 432
f 413 414 434
f 413 434 433
f 414 415 435
f 414 435 434
f 415 416 436
f 415 436 435
f 416 417 437
f 416 437 436
f 417 418 438
f 417 438 437
f 418 419 439
f 418 439 438
f 419 420 440
f 419 440 439
f 420 401 421
f 420 421 440
f 421 422 442
f 421 442 441
f 422 423 443
f 422 443 442
f 423 424 444
f 423 444 443
f 424 425 445
f 424 445 444
f 425 426 446
f 425 446 445
f 426 427 447
f 426 447 446
f 427 428 448
f 427 448 447
f 428 429 449
f 428 449 448
f 429 430 450
f 429 450 449
f 430 431 451
f 430 451 450
f 431 432 452
f 431 452 451
f 432 433 453
f 432 453 452
f 433 434 454
f 433 454 453
f 434 435 455
f 434 455 454
f 435 436 456
f 435 456 455
f 436 437 457
f 436 457 456
f 437 438 458
f 437 458 457
f 438 439 459
f 438 459 458
f 439 440 460
f 439 460 459
f 440 421 441
f 440 441 460
f 441 442 462
f 441 462 461
f 442 443 463
f 442 463 462
f 443 444 464
f 443 464 463
f 444 445 465
f 444 465 464
f 445 446 466
f 445 466 465
f 446 447 467
f 446 467 466
f 447 448 468
f 447 468 467
f 448 449 469
f 448 469 468
f 449 450 470
f 449 470 469
f 450 451 471
f 450 471 470
f 451 452 472
f 451 472 471
f 452 453 473
f 452 473 472
f 453 454 474
f 453 474 473
f 454 455 475
f 454 475 474
f 455 456 476
f 455 476 475
f 456 457 477
f 456 477 476
f 457 458 478
f 457 478 477
f 458 459 479
f 458 479 478
f 459 460 480
f 459 480 479
f 460 441 461
f 460 461 480
f 461 462 482
f 461 482 481
f 462 463 483
f 462 483 482
f 463 464 484
f 463 484 483
f 464 465 485
f 464 485 484
f 465 466 486
f 465 486 485
f 466 467 487
f 466 487 486
f 467 468 488
f 467 488 487
f 468 469 489
f 468 489 488
f 469 470 490
f 469 490 489
f 470 471 491
f 470 491 490
f 471 472 492
f 471 492 491
f 472 473 493
f 472 493 492
f 473 474 494
f 473 494 493
f 474 475 495
f 474 495 494
f 475 476 496
f 475 496 495
f 476 477 497
f 476 497 496
f 477 478 498
f 477 498 497
f 478 479 499
f 478 499 498
f 479 480 500
f 479 500 499
f 480 461 481
f 480 481 500
f 481 482 502
f 481 502 501
f 482 483 503
f 482 503 502
f 483 484 504
f 483 504 503
f 484 485 505
f 484 505 504
f 485 486 506
f 485 506 505
f 486 487 507
f 486 507 506
f 487 488 508
f 487 508 507
f 488 489 509
f 488 509 508
f 489 490 510
f 489 510 509
f 490 491 511
f 490 511 510
f 491 492 512
f 491 512 511
f 492 493 513
f 492 513 512
f 493 494 514
f 493 514 513
f 494 495 515
f 494 515 514
f 495 496 516
f 495 516 515
f 496 497 517
f 496 517 516
f 497 498 518
f 497 518 517
f 498 499 519
f 498 519 518
f 499 500 520
f 499 520 519
f 500 481 501
f 500 501 520
f 501 502 522
f 501 522 521
f 502 503 523
f 502 523 522
f 503 504 524
f 503 524 523
f 504 505 525
f 504 525 524
f 505 506 526
f 505 526 525
f 506 507 527
f 506 527 526
f 507 508 528
f 507 528 527
f 508 509 529
f 508 529 528
f 509 510 530
f 509 530 529
f 510 511 531
f 510 531 530
f 511 512 532
f 511 532 531
f 512 513 533
f 512 533 532
f 513 514 534
f 513 534 533
f 514 515 535
f 514 535 534
f 515 516 536
f 515 536 535
f 516 517 537
f 516 537 536
f 517 518 538
f 517 538 537
f 518 519 539
f 518 539 538
f 519 520 540
f 519 540 539
f 520 501 521
f 520 521 540
f 521 522 542
f 521 542 541
f 522 523 543
f 522 543 542
f 523 524 544
f 523 544 543
f 524 525 545
f 524 545 544
f 525 526 546
f 525 546 545
f 526 527 547
f 526 547 546
f 527 528 548
f 527 548 547
f 528 529 549
f 528 549 548
f 529 530 550
f 529 550 549
f 530 531 551
f 530 551 550
f 531 532 552
f 531 552 551
f 532 533 553
f 532 553 552
f 533 534 554
f 533 554 553
f 534 535 555
f 534 555 554
f 535 536 556
f 535 556 555
f 536 537 557
f 536 557 556
f 537 538 558
f 537 558 557
f 538 539 559
f 538 559 558
f 539 540 560
f 539 560 559
f 540 521 541
f 540 541 560
f 541 542 562
f 541 562 561
f 542 543 563
f 542 563 562
f 543 544 564
f 543 564 563
f 544 545 565
f 544 565 564
f 545 546 566
f 545 566 565
f 546 547 567
f 546 567 566
f 547 548 568
f 547 568 567
f 548 549 569
f 548 569 568
f 549 550 570
f 549 570 569
f 550 551 571
f 550 571 570
f 551 552 572
f 551 572 571
f 552 553 573
f 552 573 572
f 553 554 574
f 553 574 573
f 554 555 575
f 554 575 574
f 555 556 576
f 555 576 575
f 556 557 577
f 556 577 576
f 557 558 578
f 557 578 577
f 558 559 579
f 558 579 578
f 559 560 580
f 559 580 579
f 560 541 561
f 560 561 580
f 581 2 1
f 582 561 562
f 581 3 2
f 582 562 563
f 581 4 3
f 582 563 564
f 581 5 4
f 582 564 565
f 581 6 5
f 582 565 566
f 581 7 6
f 582 566 567
f 581 8 7
f 582 567 568
f 581 9 8
f 582 568 569
f 581 10 9
f 582 569 570
f 581 11 10
f 582 570 571
f 581 12 11
f 582 571 572
f 581 13 12
f 582 572 573
f 581 14 13
f 582 573 574
f 581 15 14
f 582 574 575
f 581 16 15
f 582 575 576
f 581 17 16
f 582 576 577
f 581 18 17
f 582 577 578
f 581 19 18
f 582 578 579
f 581 20 19
f 582 579 580
f 581 1 20
f 582 580 561
