# Generated by scripts/generate_transport_prop_meshes.py
# Brown banana end-cap visual mesh
# Units: metres; project-owned procedural asset (MIT)
o banana_tips_visual
v -0.038220032 0.000000000 0.009685653
v -0.038077685 0.003673761 0.009597438
v -0.037568540 0.003394113 0.010419014
v -0.037136907 0.002597741 0.011115511
v -0.036848500 0.001405887 0.011580896
v -0.036747224 0.000000000 0.011744318
v -0.036848500 -0.001405887 0.011580896
v -0.037136907 -0.002597741 0.011115511
v -0.037568540 -0.003394113 0.010419014
v -0.038077685 -0.003673761 0.009597438
v -0.038586830 -0.003394113 0.008775863
v -0.039018462 -0.002597741 0.008079366
v -0.039306870 -0.001405887 0.007613981
v -0.039408145 -0.000000000 0.007450559
v -0.039306870 0.001405887 0.007613981
v -0.039018462 0.002597741 0.008079366
v -0.038586830 0.003394113 0.008775863
v -0.037672315 0.006788225 0.009346223
v -0.036731538 0.006271502 0.010864296
v -0.035933985 0.004800000 0.012151256
v -0.035401077 0.002597741 0.013011175
v -0.035213945 0.000000000 0.013313139
v -0.035401077 -0.002597741 0.013011175
v -0.035933985 -0.004800000 0.012151256
v -0.036731538 -0.006271502 0.010864296
v -0.037672315 -0.006788225 0.009346223
v -0.038613092 -0.006271502 0.007828151
v -0.039410645 -0.004800000 0.006541191
v -0.039943553 -0.002597741 0.005681272
v -0.040130685 -0.000000000 0.005379308
v -0.039943553 0.002597741 0.005681272
v -0.039410645 0.004800000 0.006541191
v -0.038613092 0.006271502 0.007828151
v -0.037065636 0.008869244 0.008970253
v -0.035836451 0.008194113 0.010953711
v -0.034794399 0.006271502 0.012635205
v -0.034098121 0.003394113 0.013758744
v -0.033853621 0.000000000 0.014153278
v -0.034098121 -0.003394113 0.013758744
v -0.034794399 -0.006271502 0.012635205
v -0.035836451 -0.008194113 0.010953711
v -0.037065636 -0.008869244 0.008970253
v -0.038294821 -0.008194113 0.006986796
v -0.039336874 -0.006271502 0.005305302
v -0.040033151 -0.003394113 0.004181763
v -0.040277651 -0.000000000 0.003787229
v -0.040033151 0.003394113 0.004181763
v -0.039336874 0.006271502 0.005305302
v -0.038294821 0.008194113 0.006986796
v -0.036350010 0.009600000 0.008526767
v -0.035019550 0.008869244 0.010673646
v -0.033891640 0.006788225 0.012493682
v -0.033137995 0.003673761 0.013709791
v -0.032873350 0.000000000 0.014136832
v -0.033137995 -0.003673761 0.013709791
v -0.033891640 -0.006788225 0.012493682
v -0.035019550 -0.008869244 0.010673646
v -0.036350010 -0.009600000 0.008526767
v -0.037680470 -0.008869244 0.006379888
v -0.038808380 -0.006788225 0.004559851
v -0.039562025 -0.003673761 0.003343742
v -0.039826670 -0.000000000 0.002916701
v -0.039562025 0.003673761 0.003343742
v -0.038808380 0.006788225 0.004559851
v -0.037680470 0.008869244 0.006379888
v -0.035634384 0.008869244 0.008083280
v -0.034405199 0.008194113 0.010066738
v -0.033363146 0.006271502 0.011748232
v -0.032666868 0.003394113 0.012871770
v -0.032422368 0.000000000 0.013266305
v -0.032666868 -0.003394113 0.012871770
v -0.033363146 -0.006271502 0.011748232
v -0.034405199 -0.008194113 0.010066738
v -0.035634384 -0.008869244 0.008083280
v -0.036863569 -0.008194113 0.006099822
v -0.037905621 -0.006271502 0.004418328
v -0.038601899 -0.003394113 0.003294790
v -0.038846399 -0.000000000 0.002900255
v -0.038601899 0.003394113 0.003294790
v -0.037905621 0.006271502 0.004418328
v -0.036863569 0.008194113 0.006099822
v -0.035027705 0.006788225 0.007707310
v -0.034086927 0.006271502 0.009225383
v -0.033289375 0.004800000 0.010512343
v -0.032756467 0.002597741 0.011372262
v -0.032569335 0.000000000 0.011674225
v -0.032756467 -0.002597741 0.011372262
v -0.033289375 -0.004800000 0.010512343
v -0.034086927 -0.006271502 0.009225383
v -0.035027705 -0.006788225 0.007707310
v -0.035968482 -0.006271502 0.006189237
v -0.036766035 -0.004800000 0.004902277
v -0.037298943 -0.002597741 0.004042358
v -0.037486075 -0.000000000 0.003740395
v -0.037298943 0.002597741 0.004042358
v -0.036766035 0.004800000 0.004902277
v -0.035968482 0.006271502 0.006189237
v -0.034622335 0.003673761 0.007456095
v -0.034113190 0.003394113 0.008277670
v -0.033681558 0.002597741 0.008974168
v -0.033393150 0.001405887 0.009439553
v -0.033291875 0.000000000 0.009602974
v -0.033393150 -0.001405887 0.009439553
v -0.033681558 -0.002597741 0.008974168
v -0.034113190 -0.003394113 0.008277670
v -0.034622335 -0.003673761 0.007456095
v -0.035131480 -0.003394113 0.006634520
v -0.035563113 -0.002597741 0.005938022
v -0.035851520 -0.001405887 0.005472637
v -0.035952795 -0.000000000 0.005309216
v -0.035851520 0.001405887 0.005472637
v -0.035563113 0.002597741 0.005938022
v -0.035131480 0.003394113 0.006634520
v -0.034479988 0.000000000 0.007367880
v 0.038220032 0.000000000 0.009685653
v 0.038077685 0.003673761 0.009597438
v 0.037568540 0.003394113 0.010419014
v 0.037136907 0.002597741 0.011115511
v 0.036848500 0.001405887 0.011580896
v 0.036747224 0.000000000 0.011744318
v 0.036848500 -0.001405887 0.011580896
v 0.037136907 -0.002597741 0.011115511
v 0.037568540 -0.003394113 0.010419014
v 0.038077685 -0.003673761 0.009597438
v 0.038586830 -0.003394113 0.008775863
v 0.039018462 -0.002597741 0.008079366
v 0.039306870 -0.001405887 0.007613981
v 0.039408145 -0.000000000 0.007450559
v 0.039306870 0.001405887 0.007613981
v 0.039018462 0.002597741 0.008079366
v 0.038586830 0.003394113 0.008775863
v 0.037672315 0.006788225 0.009346223
v 0.036731538 0.006271502 0.010864296
v 0.035933985 0.004800000 0.012151256
v 0.035401077 0.002597741 0.013011175
v 0.035213945 0.000000000 0.013313139
v 0.035401077 -0.002597741 0.013011175
v 0.035933985 -0.004800000 0.012151256
v 0.036731538 -0.006271502 0.010864296
v 0.037672315 -0.006788225 0.009346223
v 0.038613092 -0.006271502 0.007828151
v 0.039410645 -0.004800000 0.006541191
v 0.039943553 -0.002597741 0.005681272
v 0.040130685 -0.000000000 0.005379308
v 0.039943553 0.002597741 0.005681272
v 0.039410645 0.004800000 0.006541191
v 0.038613092 0.006271502 0.007828151
v 0.037065636 0.008869244 0.008970253
v 0.035836451 0.008194113 0.010953711
v 0.034794399 0.006271502 0.012635205
v 0.034098121 0.003394113 0.013758744
v 0.033853621 0.000000000 0.014153278
v 0.034098121 -0.003394113 0.013758744
v 0.034794399 -0.006271502 0.012635205
v 0.035836451 -0.008194113 0.010953711
v 0.037065636 -0.008869244 0.008970253
v 0.038294821 -0.008194113 0.006986796
v 0.039336874 -0.006271502 0.005305302
v 0.040033151 -0.003394113 0.004181763
v 0.040277651 -0.000000000 0.003787229
v 0.040033151 0.003394113 0.004181763
v 0.039336874 0.006271502 0.005305302
v 0.038294821 0.008194113 0.006986796
v 0.036350010 0.009600000 0.008526767
v 0.035019550 0.008869244 0.010673646
v 0.033891640 0.006788225 0.012493682
v 0.033137995 0.003673761 0.013709791
v 0.032873350 0.000000000 0.014136832
v 0.033137995 -0.003673761 0.013709791
v 0.033891640 -0.006788225 0.012493682
v 0.035019550 -0.008869244 0.010673646
v 0.036350010 -0.009600000 0.008526767
v 0.037680470 -0.008869244 0.006379888
v 0.038808380 -0.006788225 0.004559851
v 0.039562025 -0.003673761 0.003343742
v 0.039826670 -0.000000000 0.002916701
v 0.039562025 0.003673761 0.003343742
v 0.038808380 0.006788225 0.004559851
v 0.037680470 0.008869244 0.006379888
v 0.035634384 0.008869244 0.008083280
v 0.034405199 0.008194113 0.010066738
v 0.033363146 0.006271502 0.011748232
v 0.032666868 0.003394113 0.012871770
v 0.032422368 0.000000000 0.013266305
v 0.032666868 -0.003394113 0.012871770
v 0.033363146 -0.006271502 0.011748232
v 0.034405199 -0.008194113 0.010066738
v 0.035634384 -0.008869244 0.008083280
v 0.036863569 -0.008194113 0.006099822
v 0.037905621 -0.006271502 0.004418328
v 0.038601899 -0.003394113 0.003294790
v 0.038846399 -0.000000000 0.002900255
v 0.038601899 0.003394113 0.003294790
v 0.037905621 0.006271502 0.004418328
v 0.036863569 0.008194113 0.006099822
v 0.035027705 0.006788225 0.007707310
v 0.034086927 0.006271502 0.009225383
v 0.033289375 0.004800000 0.010512343
v 0.032756467 0.002597741 0.011372262
v 0.032569335 0.000000000 0.011674225
v 0.032756467 -0.002597741 0.011372262
v 0.033289375 -0.004800000 0.010512343
v 0.034086927 -0.006271502 0.009225383
v 0.035027705 -0.006788225 0.007707310
v 0.035968482 -0.006271502 0.006189237
v 0.036766035 -0.004800000 0.004902277
v 0.037298943 -0.002597741 0.004042358
v 0.037486075 -0.000000000 0.003740395
v 0.037298943 0.002597741 0.004042358
v 0.036766035 0.004800000 0.004902277
v 0.035968482 0.006271502 0.006189237
v 0.034622335 0.003673761 0.007456095
v 0.034113190 0.003394113 0.008277670
v 0.033681558 0.002597741 0.008974168
v 0.033393150 0.001405887 0.009439553
v 0.033291875 0.000000000 0.009602974
v 0.033393150 -0.001405887 0.009439553
v 0.033681558 -0.002597741 0.008974168
v 0.034113190 -0.003394113 0.008277670
v 0.034622335 -0.003673761 0.007456095
v 0.035131480 -0.003394113 0.006634520
v 0.035563113 -0.002597741 0.005938022
v 0.035851520 -0.001405887 0.005472637
v 0.035952795 -0.000000000 0.005309216
v 0.035851520 0.001405887 0.005472637
v 0.035563113 0.002597741 0.005938022
v 0.035131480 0.003394113 0.006634520
v 0.034479988 0.000000000 0.007367880
f 1 2 3
f 1 3 4
f 1 4 5
f 1 5 6
f 1 6 7
f 1 7 8
f 1 8 9
f 1 9 10
f 1 10 11
f 1 11 12
f 1 12 13
f 1 13 14
f 1 14 15
f 1 15 16
f 1 16 17
f 1 17 2
f 2 18 19
f 2 19 3
f 3 19 20
f 3 20 4
f 4 20 21
f 4 21 5
f 5 21 22
f 5 22 6
f 6 22 23
f 6 23 7
f 7 23 24
f 7 24 8
f 8 24 25
f 8 25 9
f 9 25 26
f 9 26 10
f 10 26 27
f 10 27 11
f 11 27 28
f 11 28 12
f 12 28 29
f 12 29 13
f 13 29 30
f 13 30 14
f 14 30 31
f 14 31 15
f 15 31 32
f 15 32 16
f 16 32 33
f 16 33 17
f 17 33 18
f 17 18 2
f 18 34 35
f 18 35 19
f 19 35 36
f 19 36 20
f 20 36 37
f 20 37 21
f 21 37 38
f 21 38 22
f 22 38 39
f 22 39 23
f 23 39 40
f 23 40 24
f 24 40 41
f 24 41 25
f 25 41 42
f 25 42 26
f 26 42 43
f 26 43 27
f 27 43 44
f 27 44 28
f 28 44 45
f 28 45 29
f 29 45 46
f 29 46 30
f 30 46 47
f 30 47 31
f 31 47 48
f 31 48 32
f 32 48 49
f 32 49 33
f 33 49 34
f 33 34 18
f 34 50 51
f 34 51 35
f 35 51 52
f 35 52 36
f 36 52 53
f 36 53 37
f 37 53 54
f 37 54 38
f 38 54 55
f 38 55 39
f 39 55 56
f 39 56 40
f 40 56 57
f 40 57 41
f 41 57 58
f 41 58 42
f 42 58 59
f 42 59 43
f 43 59 60
f 43 60 44
f 44 60 61
f 44 61 45
f 45 61 62
f 45 62 46
f 46 62 63
f 46 63 47
f 47 63 64
f 47 64 48
f 48 64 65
f 48 65 49
f 49 65 50
f 49 50 34
f 50 66 67
f 50 67 51
f 51 67 68
f 51 68 52
f 52 68 69
f 52 69 53
f 53 69 70
f 53 70 54
f 54 70 71
f 54 71 55
f 55 71 72
f 55 72 56
f 56 72 73
f 56 73 57
f 57 73 74
f 57 74 58
f 58 74 75
f 58 75 59
f 59 75 76
f 59 76 60
f 60 76 77
f 60 77 61
f 61 77 78
f 61 78 62
f 62 78 79
f 62 79 63
f 63 79 80
f 63 80 64
f 64 80 81
f 64 81 65
f 65 81 66
f 65 66 50
f 66 82 83
f 66 83 67
f 67 83 84
f 67 84 68
f 68 84 85
f 68 85 69
f 69 85 86
f 69 86 70
f 70 86 87
f 70 87 71
f 71 87 88
f 71 88 72
f 72 88 89
f 72 89 73
f 73 89 90
f 73 90 74
f 74 90 91
f 74 91 75
f 75 91 92
f 75 92 76
f 76 92 93
f 76 93 77
f 77 93 94
f 77 94 78
f 78 94 95
f 78 95 79
f 79 95 96
f 79 96 80
f 80 96 97
f 80 97 81
f 81 97 82
f 81 82 66
f 82 98 99
f 82 99 83
f 83 99 100
f 83 100 84
f 84 100 101
f 84 101 85
f 85 101 102
f 85 102 86
f 86 102 103
f 86 103 87
f 87 103 104
f 87 104 88
f 88 104 105
f 88 105 89
f 89 105 106
f 89 106 90
f 90 106 107
f 90 107 91
f 91 107 108
f 91 108 92
f 92 108 109
f 92 109 93
f 93 109 110
f 93 110 94
f 94 110 111
f 94 111 95
f 95 111 112
f 95 112 96
f 96 112 113
f 96 113 97
f 97 113 98
f 97 98 82
f 98 114 99
f 99 114 100
f 100 114 101
f 101 114 102
f 102 114 103
f 103 114 104
f 104 114 105
f 105 114 106
f 106 114 107
f 107 114 108
f 108 114 109
f 109 114 110
f 110 114 111
f 111 114 112
f 112 114 113
f 113 114 98
f 115 116 117
f 115 117 118
f 115 118 119
f 115 119 120
f 115 120 121
f 115 121 122
f 115 122 123
f 115 123 124
f 115 124 125
f 115 125 126
f 115 126 127
f 115 127 128
f 115 128 129
f 115 129 130
f 115 130 131
f 115 131 116
f 116 132 133
f 116 133 117
f 117 133 134
f 117 134 118
f 118 134 135
f 118 135 119
f 119 135 136
f 119 136 120
f 120 136 137
f 120 137 121
f 121 137 138
f 121 138 122
f 122 138 139
f 122 139 123
f 123 139 140
f 123 140 124
f 124 140 141
f 124 141 125
f 125 141 142
f 125 142 126
f 126 142 143
f 126 143 127
f 127 143 144
f 127 144 128
f 128 144 145
f 128 145 129
f 129 145 146
f 129 146 130
f 130 146 147
f 130 147 131
f 131 147 132
f 131 132 116
f 132 148 149
f 132 149 133
f 133 149 150
f 133 150 134
f 134 150 151
f 134 151 135
f 135 151 152
f 135 152 136
f 136 152 153
f 136 153 137
f 137 153 154
f 137 154 138
f 138 154 155
f 138 155 139
f 139 155 156
f 139 156 140
f 140 156 157
f 140 157 141
f 141 157 158
f 141 158 142
f 142 158 159
f 142 159 143
f 143 159 160
f 143 160 144
f 144 160 161
f 144 161 145
f 145 161 162
f 145 162 146
f 146 162 163
f 146 163 147
f 147 163 148
f 147 148 132
f 148 164 165
f 148 165 149
f 149 165 166
f 149 166 150
f 150 166 167
f 150 167 151
f 151 167 168
f 151 168 152
f 152 168 169
f 152 169 153
f 153 169 170
f 153 170 154
f 154 170 171
f 154 171 155
f 155 171 172
f 155 172 156
f 156 172 173
f 156 173 157
f 157 173 174
f 157 174 158
f 158 174 175
f 158 175 159
f 159 175 176
f 159 176 160
f 160 176 177
f 160 177 161
f 161 177 178
f 161 178 162
f 162 178 179
f 162 179 163
f 163 179 164
f 163 164 148
f 164 180 181
f 164 181 165
f 165 181 182
f 165 182 166
f 166 182 183
f 166 183 167
f 167 183 184
f 167 184 168
f 168 184 185
f 168 185 169
f 169 185 186
f 169 186 170
f 170 186 187
f 170 187 171
f 171 187 188
f 171 188 172
f 172 188 189
f 172 189 173
f 173 189 190
f 173 190 174
f 174 190 191
f 174 191 175
f 175 191 192
f 175 192 176
f 176 192 193
f 176 193 177
f 177 193 194
f 177 194 178
f 178 194 195
f 178 195 179
f 179 195 180
f 179 180 164
f 180 196 197
f 180 197 181
f 181 197 198
f 181 198 182
f 182 198 199
f 182 199 183
f 183 199 200
f 183 200 184
f 184 200 201
f 184 201 185
f 185 201 202
f 185 202 186
f 186 202 203
f 186 203 187
f 187 203 204
f 187 204 188
f 188 204 205
f 188 205 189
f 189 205 206
f 189 206 190
f 190 206 207
f 190 207 191
f 191 207 208
f 191 208 192
f 192 208 209
f 192 209 193
f 193 209 210
f 193 210 194
f 194 210 211
f 194 211 195
f 195 211 196
f 195 196 180
f 196 212 213
f 196 213 197
f 197 213 214
f 197 214 198
f 198 214 215
f 198 215 199
f 199 215 216
f 199 216 200
f 200 216 217
f 200 217 201
f 201 217 218
f 201 218 202
f 202 218 219
f 202 219 203
f 203 219 220
f 203 220 204
f 204 220 221
f 204 221 205
f 205 221 222
f 205 222 206
f 206 222 223
f 206 223 207
f 207 223 224
f 207 224 208
f 208 224 225
f 208 225 209
f 209 225 226
f 209 226 210
f 210 226 227
f 210 227 211
f 211 227 212
f 211 212 196
f 212 228 213
f 213 228 214
f 214 228 215
f 215 228 216
f 216 228 217
f 217 228 218
f 218 228 219
f 219 228 220
f 220 228 221
f 221 228 222
f 222 228 223
f 223 228 224
f 224 228 225
f 225 228 226
f 226 228 227
f 227 228 212
