# Generated by scripts/generate_transport_prop_meshes.py
# Convex banana collision segment 3/5
# Units: metres; project-owned procedural asset (MIT)
o banana_collision_2
v -0.010689663 -0.021661972 -0.022683523
v 0.010689663 -0.021661972 -0.022683523
v 0.010689663 0.021661972 -0.022683523
v -0.010689663 0.021661972 -0.022683523
v -0.005110337 -0.021661972 0.017773005
v 0.005110337 -0.021661972 0.017773005
v 0.005110337 0.021661972 0.017773005
v -0.005110337 0.021661972 0.017773005
f 1 4 3
f 1 3 2
f 5 6 7
f 5 7 8
f 1 2 6
f 1 6 5
f 4 8 7
f 4 7 3
f 1 5 8
f 1 8 4
f 2 3 7
f 2 7 6
