# Generated by scripts/generate_transport_prop_meshes.py
# Convex banana collision segment 1/5
# Units: metres; project-owned procedural asset (MIT)
o banana_collision_0
v -0.039345397 -0.010000000 0.001794928
v -0.025362136 -0.016338028 -0.012918367
v -0.025362136 0.016338028 -0.012918367
v -0.039345397 0.010000000 0.001794928
v -0.031654603 -0.010000000 0.014205072
v -0.015637864 -0.016338028 0.014254610
v -0.015637864 0.016338028 0.014254610
v -0.031654603 0.010000000 0.014205072
f 1 4 3
f 1 3 2
f 5 6 7
f 5 7 8
f 1 2 6
f 1 6 5
f 4 8 7
f 4 7 3
f 1 5 8
f 1 8 4
f 2 3 7
f 2 7 6
