# Generated by scripts/generate_transport_prop_meshes.py
# Green star-shaped orange calyx visual mesh
# Units: metres; project-owned procedural asset (MIT)
o orange_calyx_visual
v 0.008000000 0.000000000 0.029000000
v 0.002588854 0.001880913 0.029000000
v 0.002472136 0.007608452 0.029000000
v -0.000988854 0.003043381 0.029000000
v -0.006472136 0.004702282 0.029000000
v -0.003200000 0.000000000 0.029000000
v -0.006472136 -0.004702282 0.029000000
v -0.000988854 -0.003043381 0.029000000
v 0.002472136 -0.007608452 0.029000000
v 0.002588854 -0.001880913 0.029000000
v 0.008000000 0.000000000 0.030200000
v 0.002588854 0.001880913 0.030200000
v 0.002472136 0.007608452 0.030200000
v -0.000988854 0.003043381 0.030200000
v -0.006472136 0.004702282 0.030200000
v -0.003200000 0.000000000 0.030200000
v -0.006472136 -0.004702282 0.030200000
v -0.000988854 -0.003043381 0.030200000
v 0.002472136 -0.007608452 0.030200000
v 0.002588854 -0.001880913 0.030200000
v 0.000000000 0.000000000 0.029000000
v 0.000000000 0.000000000 0.030200000
f 21 2 1
f 22 11 12
f 1 2 12
f 1 12 11
f 21 3 2
f 22 12 13
f 2 3 13
f 2 13 12
f 21 4 3
f 22 13 14
f 3 4 14
f 3 14 13
f 21 5 4
f 22 14 15
f 4 5 15
f 4 15 14
f 21 6 5
f 22 15 16
f 5 6 16
f 5 16 15
f 21 7 6
f 22 16 17
f 6 7 17
f 6 17 16
f 21 8 7
f 22 17 18
f 7 8 18
f 7 18 17
f 21 9 8
f 22 18 19
f 8 9 19
f 8 19 18
f 21 10 9
f 22 19 20
f 9 10 20
f 9 20 19
f 21 1 10
f 22 20 11
f 10 1 11
f 10 11 20
