# Generated by scripts/generate_transport_prop_meshes.py
# Low-poly convex orange collision hull
# Units: metres; project-owned procedural asset (MIT)
o orange_collision
v 0.000000000 0.000000000 0.029500000
v 0.013283632 0.000000000 0.026578582
v 0.011503963 0.006641816 0.026578582
v 0.006641816 0.011503963 0.026578582
v 0.000000000 0.013283632 0.026578582
v -0.006641816 0.011503963 0.026578582
v -0.011503963 0.006641816 0.026578582
v -0.013283632 0.000000000 0.026578582
v -0.011503963 -0.006641816 0.026578582
v -0.006641816 -0.011503963 0.026578582
v -0.000000000 -0.013283632 0.026578582
v 0.006641816 -0.011503963 0.026578582
v 0.011503963 -0.006641816 0.026578582
v 0.024871340 0.000000000 0.018392949
v 0.021539212 0.012435670 0.018392949
v 0.012435670 0.021539212 0.018392949
v 0.000000000 0.024871340 0.018392949
v -0.012435670 0.021539212 0.018392949
v -0.021539212 0.012435670 0.018392949
v -0.024871340 0.000000000 0.018392949
v -0.021539212 -0.012435670 0.018392949
v -0.012435670 -0.021539212 0.018392949
v -0.000000000 -0.024871340 0.018392949
v 0.012435670 -0.021539212 0.018392949
v 0.021539212 -0.012435670 0.018392949
v 0.030741437 0.000000000 0.006564368
v 0.026622865 0.015370718 0.006564368
v 0.015370718 0.026622865 0.006564368
v 0.000000000 0.030741437 0.006564368
v -0.015370718 0.026622865 0.006564368
v -0.026622865 0.015370718 0.006564368
v -0.030741437 0.000000000 0.006564368
v -0.026622865 -0.015370718 0.006564368
v -0.015370718 -0.026622865 0.006564368
v -0.000000000 -0.030741437 0.006564368
v 0.015370718 -0.026622865 0.006564368
v 0.026622865 -0.015370718 0.006564368
v 0.030741437 0.000000000 -0.006564368
v 0.026622865 0.015370718 -0.006564368
v 0.015370718 0.026622865 -0.006564368
v 0.000000000 0.030741437 -0.006564368
v -0.015370718 0.026622865 -0.006564368
v -0.026622865 0.015370718 -0.006564368
v -0.030741437 0.000000000 -0.006564368
v -0.026622865 -0.015370718 -0.006564368
v -0.015370718 -0.026622865 -0.006564368
v -0.000000000 -0.030741437 -0.006564368
v 0.015370718 -0.026622865 -0.006564368
v 0.026622865 -0.015370718 -0.006564368
v 0.024871340 0.000000000 -0.018392949
v 0.021539212 0.012435670 -0.018392949
v 0.012435670 0.021539212 -0.018392949
v 0.000000000 0.024871340 -0.018392949
v -0.012435670 0.021539212 -0.018392949
v -0.021539212 0.012435670 -0.018392949
v -0.024871340 0.000000000 -0.018392949
v -0.021539212 -0.012435670 -0.018392949
v -0.012435670 -0.021539212 -0.018392949
v -0.000000000 -0.024871340 -0.018392949
v 0.012435670 -0.021539212 -0.018392949
v 0.021539212 -0.012435670 -0.018392949
v 0.013283632 0.000000000 -0.026578582
v 0.011503963 0.006641816 -0.026578582
v 0.006641816 0.011503963 -0.026578582
v 0.000000000 0.013283632 -0.026578582
v -0.006641816 0.011503963 -0.026578582
v -0.011503963 0.006641816 -0.026578582
v -0.013283632 0.000000000 -0.026578582
v -0.011503963 -0.006641816 -0.026578582
v -0.006641816 -0.011503963 -0.026578582
v -0.000000000 -0.013283632 -0.026578582
v 0.006641816 -0.011503963 -0.026578582
v 0.011503963 -0.006641816 -0.026578582
v 0.000000000 0.000000000 -0.029500000
f 1 2 3
f 1 3 4
f 1 4 5
f 1 5 6
f 1 6 7
f 1 7 8
f 1 8 9
f 1 9 10
f 1 10 11
f 1 11 12
f 1 12 13
f 1 13 2
f 2 14 15
f 2 15 3
f 3 15 16
f 3 16 4
f 4 16 17
f 4 17 5
f 5 17 18
f 5 18 6
f 6 18 19
f 6 19 7
f 7 19 20
f 7 20 8
f 8 20 21
f 8 21 9
f 9 21 22
f 9 22 10
f 10 22 23
f 10 23 11
f 11 23 24
f 11 24 12
f 12 24 25
f 12 25 13
f 13 25 14
f 13 14 2
f 14 26 27
f 14 27 15
f 15 27 28
f 15 28 16
f 16 28 29
f 16 29 17
f 17 29 30
f 17 30 18
f 18 30 31
f 18 31 19
f 19 31 32
f 19 32 20
f 20 32 33
f 20 33 21
f 21 33 34
f 21 34 22
f 22 34 35
f 22 35 23
f 23 35 36
f 23 36 24
f 24 36 37
f 24 37 25
f 25 37 26
f 25 26 14
f 26 38 39
f 26 39 27
f 27 39 40
f 27 40 28
f 28 40 41
f 28 41 29
f 29 41 42
f 29 42 30
f 30 42 43
f 30 43 31
f 31 43 44
f 31 44 32
f 32 44 45
f 32 45 33
f 33 45 46
f 33 46 34
f 34 46 47
f 34 47 35
f 35 47 48
f 35 48 36
f 36 48 49
f 36 49 37
f 37 49 38
f 37 38 26
f 38 50 51
f 38 51 39
f 39 51 52
f 39 52 40
f 40 52 53
f 40 53 41
f 41 53 54
f 41 54 42
f 42 54 55
f 42 55 43
f 43 55 56
f 43 56 44
f 44 56 57
f 44 57 45
f 45 57 58
f 45 58 46
f 46 58 59
f 46 59 47
f 47 59 60
f 47 60 48
f 48 60 61
f 48 61 49
f 49 61 50
f 49 50 38
f 50 62 63
f 50 63 51
f 51 63 64
f 51 64 52
f 52 64 65
f 52 65 53
f 53 65 66
f 53 66 54
f 54 66 67
f 54 67 55
f 55 67 68
f 55 68 56
f 56 68 69
f 56 69 57
f 57 69 70
f 57 70 58
f 58 70 71
f 58 71 59
f 59 71 72
f 59 72 60
f 60 72 73
f 60 73 61
f 61 73 62
f 61 62 50
f 62 74 63
f 63 74 64
f 64 74 65
f 65 74 66
f 66 74 67
f 67 74 68
f 68 74 69
f 69 74 70
f 70 74 71
f 71 74 72
f 72 74 73
f 73 74 62
