# Generated by scripts/generate_transport_prop_meshes.py
# Tapered pear stem visual mesh
# Units: metres; project-owned procedural asset (MIT)
o pear_stem_visual
v 0.001000000 0.002691000 0.038000000
v -0.000474293 0.002029824 0.038036857
v -0.001558494 0.000831565 0.038063962
v -0.001385455 -0.000775324 0.038059636
v -0.000581236 -0.002177065 0.038039531
v 0.001000000 -0.002509000 0.038000000
v 0.002581236 -0.002177065 0.037960469
v 0.003385455 -0.000775324 0.037940364
v 0.003558494 0.000831565 0.037936038
v 0.002474293 0.002029824 0.037963143
v 0.001083333 0.002553000 0.041333333
v -0.000314046 0.001925730 0.041403202
v -0.001341685 0.000788920 0.041454584
v -0.001177674 -0.000735563 0.041446384
v -0.000415410 -0.002065420 0.041408271
v 0.001083333 -0.002380333 0.041333333
v 0.002582077 -0.002065420 0.041258396
v 0.003344340 -0.000735563 0.041220283
v 0.003508351 0.000788920 0.041212082
v 0.002480713 0.001925730 0.041263464
v 0.001333333 0.002415000 0.044666667
v 0.000016405 0.001821637 0.044798359
v -0.000952070 0.000746276 0.044895207
v -0.000797501 -0.000695803 0.044879750
v -0.000079123 -0.001953776 0.044807912
v 0.001333333 -0.002251667 0.044666667
v 0.002745790 -0.001953776 0.044525421
v 0.003464168 -0.000695803 0.044453583
v 0.003618736 0.000746276 0.044438126
v 0.002650262 0.001821637 0.044534974
v 0.001750000 0.002277000 0.048000000
v 0.000515938 0.001717543 0.048185109
v -0.000391597 0.000703632 0.048321240
v -0.000246754 -0.000656043 0.048299513
v 0.000426420 -0.001842132 0.048198537
v 0.001750000 -0.002123000 0.048000000
v 0.003073580 -0.001842132 0.047801463
v 0.003746754 -0.000656043 0.047700487
v 0.003891597 0.000703632 0.047678760
v 0.002984062 0.001717543 0.047814891
v 0.002333333 0.002139000 0.051333333
v 0.001183858 0.001613450 0.051563228
v 0.000338528 0.000660987 0.051732294
v 0.000473443 -0.000616283 0.051705311
v 0.001100476 -0.001730487 0.051579905
v 0.002333333 -0.001994333 0.051333333
v 0.003566191 -0.001730487 0.051086762
v 0.004193224 -0.000616283 0.050961355
v 0.004328138 0.000660987 0.050934372
v 0.003482809 0.001613450 0.051103438
v 0.003083333 0.002001000 0.054666667
v 0.002019464 0.001509356 0.054932634
v 0.001237090 0.000618343 0.055128228
v 0.001361957 -0.000576523 0.055097011
v 0.001942292 -0.001618843 0.054951927
v 0.003083333 -0.001865667 0.054666667
v 0.004224374 -0.001618843 0.054381406
v 0.004804710 -0.000576523 0.054236323
v 0.004929577 0.000618343 0.054205106
v 0.004147203 0.001509356 0.054400699
v 0.004000000 0.001863000 0.058000000
v 0.003015563 0.001405263 0.058270720
v 0.002291603 0.000575699 0.058469809
v 0.002407147 -0.000536763 0.058438035
v 0.002944153 -0.001507199 0.058290358
v 0.004000000 -0.001737000 0.058000000
v 0.005055847 -0.001507199 0.057709642
v 0.005592853 -0.000536763 0.057561965
v 0.005708397 0.000575699 0.057530191
v 0.004984437 0.001405263 0.057729280
v 0.001000000 0.000000000 0.038000000
v 0.004000000 0.000000000 0.058000000
f 1 2 12
f 1 12 11
f 2 3 13
f 2 13 12
f 3 4 14
f 3 14 13
f 4 5 15
f 4 15 14
f 5 6 16
f 5 16 15
f 6 7 17
f 6 17 16
f 7 8 18
f 7 18 17
f 8 9 19
f 8 19 18
f 9 10 20
f 9 20 19
f 10 1 11
f 10 11 20
f 11 12 22
f 11 22 21
f 12 13 23
f 12 23 22
f 13 14 24
f 13 24 23
f 14 15 25
f 14 25 24
f 15 16 26
f 15 26 25
f 16 17 27
f 16 27 26
f 17 18 28
f 17 28 27
f 18 19 29
f 18 29 28
f 19 20 30
f 19 30 29
f 20 11 21
f 20 21 30
f 21 22 32
f 21 32 31
f 22 23 33
f 22 33 32
f 23 24 34
f 23 34 33
f 24 25 35
f 24 35 34
f 25 26 36
f 25 36 35
f 26 27 37
f 26 37 36
f 27 28 38
f 27 38 37
f 28 29 39
f 28 39 38
f 29 30 40
f 29 40 39
f 30 21 31
f 30 31 40
f 31 32 42
f 31 42 41
f 32 33 43
f 32 43 42
f 33 34 44
f 33 44 43
f 34 35 45
f 34 45 44
f 35 36 46
f 35 46 45
f 36 37 47
f 36 47 46
f 37 38 48
f 37 48 47
f 38 39 49
f 38 49 48
f 39 40 50
f 39 50 49
f 40 31 41
f 40 41 50
f 41 42 52
f 41 52 51
f 42 43 53
f 42 53 52
f 43 44 54
f 43 54 53
f 44 45 55
f 44 55 54
f 45 46 56
f 45 56 55
f 46 47 57
f 46 57 56
f 47 48 58
f 47 58 57
f 48 49 59
f 48 59 58
f 49 50 60
f 49 60 59
f 50 41 51
f 50 51 60
f 51 52 62
f 51 62 61
f 52 53 63
f 52 63 62
f 53 54 64
f 53 64 63
f 54 55 65
f 54 65 64
f 55 56 66
f 55 66 65
f 56 57 67
f 56 67 66
f 57 58 68
f 57 68 67
f 58 59 69
f 58 69 68
f 59 60 70
f 59 70 69
f 60 51 61
f 60 61 70
f 71 2 1
f 72 61 62
f 71 3 2
f 72 62 63
f 71 4 3
f 72 63 64
f 71 5 4
f 72 64 65
f 71 6 5
f 72 65 66
f 71 7 6
f 72 66 67
f 71 8 7
f 72 67 68
f 71 9 8
f 72 68 69
f 71 10 9
f 72 69 70
f 71 1 10
f 72 70 61
