# Generated by scripts/generate_transport_prop_meshes.py
# Low-poly convex pear collision hull
# Units: metres; project-owned procedural asset (MIT)
o pear_collision
v 0.000000000 0.000000000 0.041000000
v 0.008639738 0.000000000 0.038678166
v 0.007784135 0.003748642 0.038678166
v 0.005386789 0.006754820 0.038678166
v 0.001922523 0.008423122 0.038678166
v -0.001922523 0.008423122 0.038678166
v -0.005386789 0.006754820 0.038678166
v -0.007784135 0.003748642 0.038678166
v -0.008639738 0.000000000 0.038678166
v -0.007784135 -0.003748642 0.038678166
v -0.005386789 -0.006754820 0.038678166
v -0.001922523 -0.008423122 0.038678166
v 0.001922523 -0.008423122 0.038678166
v 0.005386789 -0.006754820 0.038678166
v 0.007784135 -0.003748642 0.038678166
v 0.015545666 0.000000000 0.031992711
v 0.014006161 0.006745012 0.031992711
v 0.009692564 0.012154091 0.031992711
v 0.003459236 0.015155904 0.031992711
v -0.003459236 0.015155904 0.031992711
v -0.009692564 0.012154091 0.031992711
v -0.014006161 0.006745012 0.031992711
v -0.015545666 0.000000000 0.031992711
v -0.014006161 -0.006745012 0.031992711
v -0.009692564 -0.012154091 0.031992711
v -0.003459236 -0.015155904 0.031992711
v 0.003459236 -0.015155904 0.031992711
v 0.009692564 -0.012154091 0.031992711
v 0.014006161 -0.006745012 0.031992711
v 0.021907461 0.000000000 0.021750000
v 0.019737940 0.009505291 0.021750000
v 0.013659078 0.017127942 0.021750000
v 0.004874869 0.021358195 0.021750000
v -0.004874869 0.021358195 0.021750000
v -0.013659078 0.017127942 0.021750000
v -0.019737940 0.009505291 0.021750000
v -0.021907461 0.000000000 0.021750000
v -0.019737940 -0.009505291 0.021750000
v -0.013659078 -0.017127942 0.021750000
v -0.004874869 -0.021358195 0.021750000
v 0.004874869 -0.021358195 0.021750000
v 0.013659078 -0.017127942 0.021750000
v 0.019737940 -0.009505291 0.021750000
v 0.027146338 0.000000000 0.009185455
v 0.024458006 0.011778355 0.009185455
v 0.016925465 0.021223862 0.009185455
v 0.006040629 0.026465723 0.009185455
v -0.006040629 0.026465723 0.009185455
v -0.016925465 0.021223862 0.009185455
v -0.024458006 0.011778355 0.009185455
v -0.027146338 0.000000000 0.009185455
v -0.024458006 -0.011778355 0.009185455
v -0.016925465 -0.021223862 0.009185455
v -0.006040629 -0.026465723 0.009185455
v 0.006040629 -0.026465723 0.009185455
v 0.016925465 -0.021223862 0.009185455
v 0.024458006 -0.011778355 0.009185455
v 0.030130124 0.000000000 -0.004185455
v 0.027146304 0.013072971 -0.004185455
v 0.018785825 0.023556680 -0.004185455
v 0.006704583 0.029374699 -0.004185455
v -0.006704583 0.029374699 -0.004185455
v -0.018785825 0.023556680 -0.004185455
v -0.027146304 0.013072971 -0.004185455
v -0.030130124 0.000000000 -0.004185455
v -0.027146304 -0.013072971 -0.004185455
v -0.018785825 -0.023556680 -0.004185455
v -0.006704583 -0.029374699 -0.004185455
v 0.006704583 -0.029374699 -0.004185455
v 0.018785825 -0.023556680 -0.004185455
v 0.027146304 -0.013072971 -0.004185455
v 0.029639506 0.000000000 -0.016750000
v 0.026704272 0.012860100 -0.016750000
v 0.018479930 0.023173099 -0.016750000
v 0.006595410 0.028896381 -0.016750000
v -0.006595410 0.028896381 -0.016750000
v -0.018479930 0.023173099 -0.016750000
v -0.026704272 0.012860100 -0.016750000
v -0.029639506 0.000000000 -0.016750000
v -0.026704272 -0.012860100 -0.016750000
v -0.018479930 -0.023173099 -0.016750000
v -0.006595410 -0.028896381 -0.016750000
v 0.006595410 -0.028896381 -0.016750000
v 0.018479930 -0.023173099 -0.016750000
v 0.026704272 -0.012860100 -0.016750000
v 0.024822901 0.000000000 -0.026992711
v 0.022364661 0.010770253 -0.026992711
v 0.015476826 0.019407326 -0.026992711
v 0.005523615 0.024200539 -0.026992711
v -0.005523615 0.024200539 -0.026992711
v -0.015476826 0.019407326 -0.026992711
v -0.022364661 0.010770253 -0.026992711
v -0.024822901 0.000000000 -0.026992711
v -0.022364661 -0.010770253 -0.026992711
v -0.015476826 -0.019407326 -0.026992711
v -0.005523615 -0.024200539 -0.026992711
v 0.005523615 -0.024200539 -0.026992711
v 0.015476826 -0.019407326 -0.026992711
v 0.022364661 -0.010770253 -0.026992711
v 0.015423295 0.000000000 -0.033678166
v 0.013895909 0.006691917 -0.033678166
v 0.009616267 0.012058418 -0.033678166
v 0.003432006 0.015036601 -0.033678166
v -0.003432006 0.015036601 -0.033678166
v -0.009616267 0.012058418 -0.033678166
v -0.013895909 0.006691917 -0.033678166
v -0.015423295 0.000000000 -0.033678166
v -0.013895909 -0.006691917 -0.033678166
v -0.009616267 -0.012058418 -0.033678166
v -0.003432006 -0.015036601 -0.033678166
v 0.003432006 -0.015036601 -0.033678166
v 0.009616267 -0.012058418 -0.033678166
v 0.013895909 -0.006691917 -0.033678166
v 0.000000000 0.000000000 -0.036000000
f 1 2 3
f 1 3 4
f 1 4 5
f 1 5 6
f 1 6 7
f 1 7 8
f 1 8 9
f 1 9 10
f 1 10 11
f 1 11 12
f 1 12 13
f 1 13 14
f 1 14 15
f 1 15 2
f 2 16 17
f 2 17 3
f 3 17 18
f 3 18 4
f 4 18 19
f 4 19 5
f 5 19 20
f 5 20 6
f 6 20 21
f 6 21 7
f 7 21 22
f 7 22 8
f 8 22 23
f 8 23 9
f 9 23 24
f 9 24 10
f 10 24 25
f 10 25 11
f 11 25 26
f 11 26 12
f 12 26 27
f 12 27 13
f 13 27 28
f 13 28 14
f 14 28 29
f 14 29 15
f 15 29 16
f 15 16 2
f 16 30 31
f 16 31 17
f 17 31 32
f 17 32 18
f 18 32 33
f 18 33 19
f 19 33 34
f 19 34 20
f 20 34 35
f 20 35 21
f 21 35 36
f 21 36 22
f 22 36 37
f 22 37 23
f 23 37 38
f 23 38 24
f 24 38 39
f 24 39 25
f 25 39 40
f 25 40 26
f 26 40 41
f 26 41 27
f 27 41 42
f 27 42 28
f 28 42 43
f 28 43 29
f 29 43 30
f 29 30 16
f 30 44 45
f 30 45 31
f 31 45 46
f 31 46 32
f 32 46 47
f 32 47 33
f 33 47 48
f 33 48 34
f 34 48 49
f 34 49 35
f 35 49 50
f 35 50 36
f 36 50 51
f 36 51 37
f 37 51 52
f 37 52 38
f 38 52 53
f 38 53 39
f 39 53 54
f 39 54 40
f 40 54 55
f 40 55 41
f 41 55 56
f 41 56 42
f 42 56 57
f 42 57 43
f 43 57 44
f 43 44 30
f 44 58 59
f 44 59 45
f 45 59 60
f 45 60 46
f 46 60 61
f 46 61 47
f 47 61 62
f 47 62 48
f 48 62 63
f 48 63 49
f 49 63 64
f 49 64 50
f 50 64 65
f 50 65 51
f 51 65 66
f 51 66 52
f 52 66 67
f 52 67 53
f 53 67 68
f 53 68 54
f 54 68 69
f 54 69 55
f 55 69 70
f 55 70 56
f 56 70 71
f 56 71 57
f 57 71 58
f 57 58 44
f 58 72 73
f 58 73 59
f 59 73 74
f 59 74 60
f 60 74 75
f 60 75 61
f 61 75 76
f 61 76 62
f 62 76 77
f 62 77 63
f 63 77 78
f 63 78 64
f 64 78 79
f 64 79 65
f 65 79 80
f 65 80 66
f 66 80 81
f 66 81 67
f 67 81 82
f 67 82 68
f 68 82 83
f 68 83 69
f 69 83 84
f 69 84 70
f 70 84 85
f 70 85 71
f 71 85 72
f 71 72 58
f 72 86 87
f 72 87 73
f 73 87 88
f 73 88 74
f 74 88 89
f 74 89 75
f 75 89 90
f 75 90 76
f 76 90 91
f 76 91 77
f 77 91 92
f 77 92 78
f 78 92 93
f 78 93 79
f 79 93 94
f 79 94 80
f 80 94 95
f 80 95 81
f 81 95 96
f 81 96 82
f 82 96 97
f 82 97 83
f 83 97 98
f 83 98 84
f 84 98 99
f 84 99 85
f 85 99 86
f 85 86 72
f 86 100 101
f 86 101 87
f 87 101 102
f 87 102 88
f 88 102 103
f 88 103 89
f 89 103 104
f 89 104 90
f 90 104 105
f 90 105 91
f 91 105 106
f 91 106 92
f 92 106 107
f 92 107 93
f 93 107 108
f 93 108 94
f 94 108 109
f 94 109 95
f 95 109 110
f 95 110 96
f 96 110 111
f 96 111 97
f 97 111 112
f 97 112 98
f 98 112 113
f 98 113 99
f 99 113 100
f 99 100 86
f 100 114 101
f 101 114 102
f 102 114 103
f 103 114 104
f 104 114 105
f 105 114 106
f 106 114 107
f 107 114 108
f 108 114 109
f 109 114 110
f 110 114 111
f 111 114 112
f 112 114 113
f 113 114 100
